<?xml version="1.0" encoding="UTF-8"?><svg id="Layer_1" xmlns="http://www.w3.org/2000/svg" viewBox="0 0 752.62 586.09"><defs><style>.cls-1{fill:#58595b;}</style></defs><path class="cls-1" d="m32.67,74.92c40.19-3.09,80.38-6.25,120.58-9.23,43-3.18,86.02-6.16,129.07-8.67s87.97-4.65,132-5.94c43.1-1.26,86.23-1.77,129.35-1.04,40.42.68,80.86,2.43,121.13,6.02,4.47.4,8.94.79,13.39,1.36l-6.6-.89c6.6.89,13.12,2.23,19.33,4.71l-5.94-2.5c3.42,1.44,6.61,3.21,9.55,5.48l-5.03-3.88c1.93,1.57,3.64,3.29,5.2,5.23l-3.88-5.03c1.65,2.19,2.99,4.49,4.06,7.01l-2.5-5.94c.96,2.57,1.57,5.16,1.98,7.87l-.89-6.6c.61,4.78.64,9.58.84,14.39.22,5.19.88,10.35,1.41,15.52,1.08,10.61,2.05,21.24,2.91,31.87,1.63,20.17,2.84,40.38,3.56,60.6,1.3,36.65.97,73.38-1.53,109.97-1.29,18.78-3.16,37.52-5.65,56.19l.89-6.6c-2.39,17.68-5.33,35.29-8.9,52.77-3.46,16.94-8.19,33.53-12.03,50.37-2.48,10.9-2.84,22.32-7,32.8l2.5-5.94c-1.22,2.85-2.69,5.5-4.57,7.96l3.88-5.03c-1.89,2.31-4,4.33-6.33,6.18l5.03-3.88c-3.84,2.88-8.03,5.09-12.44,6.97l5.94-2.5c-11,4.51-22.61,7.73-33.99,11.13-12.21,3.65-24.49,7.06-36.84,10.24-24.14,6.21-48.52,11.51-73.06,15.88-13.97,2.49-28,4.66-42.07,6.56l6.6-.89c-75.43,10.05-151.83,11.38-227.64,5.22-21.48-1.75-42.9-4.09-64.26-6.95l6.6.89c-23.82-3.22-47.56-7.08-71.18-11.55-9.58-1.81-19.14-3.76-28.73-5.58-8.06-1.53-16.21-3.19-23.82-6.32l5.94,2.5c-2.35-1.02-4.6-2.17-6.65-3.72l5.03,3.88c-4.59-3.74-9.16-7.46-13.87-11.06l5.03,3.88c-1.81-1.41-3.51-2.89-4.98-4.66l3.88,5.03c-1.24-1.63-2.19-3.33-2.99-5.21l2.5,5.94c-3.69-9.54-5.72-20.04-7.82-30.03s-3.92-20.84-5.33-31.36l.89,6.6c-6.54-49.66-5.76-99.97-5.29-149.94s1.69-104.47,3.63-156.68c1.09-29.43,2.41-58.86,3.96-88.27.68-13-11.92-25.42-24.85-24.85-14.05.63-24.11,10.92-24.85,24.85C4.38,115.56,2.06,181.11.89,246.69.31,279.22-.09,311.76.02,344.29s.93,62.08,4.54,92.9c2.22,18.97,5.12,37.88,9.61,56.46,2.23,9.25,4.42,18.86,8.89,27.33s11.85,13.54,19.23,19.19l-5.03-3.88c5.61,4.38,10.61,9.35,17.2,12.26,7.11,3.13,14.17,5.52,21.74,7.2,12.6,2.79,25.37,5.07,38.06,7.45,34.46,6.49,69.18,11.68,104.04,15.59,65.12,7.3,130.86,9.37,196.27,5.09,67.3-4.4,134.33-15.16,199.48-32.63,16.27-4.36,32.44-9.14,48.47-14.32,8.37-2.7,16.81-5.65,24.57-9.83,9.29-5,17-12.22,22.93-20.9,8.75-12.81,9.41-28.25,12.4-42.89,2.44-11.95,6.11-23.69,8.83-35.59,11.79-51.68,18.26-104.66,20.48-157.59,2.58-61.43-.55-123.02-7.02-184.13-.81-7.69-.59-15.46-1.54-23.13s-2.21-13.34-5.37-20.41c-2.09-4.66-4.95-8.43-8.24-12.41-9.7-11.72-25.37-18.2-40.04-20.73s-29.33-3.44-43.99-4.53c-13.75-1.03-27.52-1.85-41.3-2.52-58.6-2.81-117.32-2.74-175.96-1.26-60.77,1.54-121.49,4.66-182.15,8.53s-116.13,8.15-174.16,12.65c-13.09,1.01-26.18,2.03-39.27,3.03-6.67.51-12.72,2.43-17.57,7.28-4.31,4.31-7.55,11.38-7.28,17.57.56,12.61,10.97,25.91,24.85,24.85h0Z"/><path class="cls-1" d="m17.17,74.97c45.06,50.22,90.47,100.16,137.59,148.47,46.81,47.98,95.33,94.42,146.85,137.34,12.62,10.51,25.24,21.41,38.63,30.92,9.01,6.39,18.68,12.27,29.07,16.1,7.99,2.94,17.05,1.84,24.32-2.46,4.28-2.53,8.1-5.86,11.93-9,7.19-5.9,14.05-12.24,20.83-18.6,5.14-4.82,10.39-9.6,15.21-14.74,10.13-10.79,19.49-22.37,29.42-33.36,22.86-25.3,46.38-49.99,70.09-74.5,47.3-48.89,95.38-97.09,140.49-148.04,5.59-6.31,11.13-12.67,16.62-19.07,4.45-5.18,7.43-10.92,7.43-17.94,0-6.22-2.76-13.66-7.43-17.94s-11.19-7.74-17.94-7.43-13.6,2.36-17.94,7.43c-41.76,48.7-86.6,94.62-131.33,140.57-22.55,23.17-45.08,46.35-67.2,69.94-11.02,11.75-21.94,23.6-32.71,35.59-8.68,9.67-16.82,19.99-25.82,29.34-5.54,5.75-11.42,11.19-17.27,16.62-6.88,6.39-13.81,12.83-21.25,18.59l5.14-3.97c-1.48,1.13-3,2.34-4.7,3.13l6.06-2.56c-.25.1-.49.19-.75.23l6.75-.91c-.29,0-.55-.01-.84-.05l6.75.91c-1.15-.22-2.23-.65-3.31-1.1,2.02.85,4.04,1.71,6.06,2.56-8.31-3.66-16.55-8.83-23.74-14.38l5.14,3.97c-45.27-35.48-88.16-73.91-129.45-113.93-41.67-40.39-81.73-82.4-121.04-125.08-22.11-24-43.98-48.22-65.77-72.51-8.89-9.91-26.96-9.73-35.89,0-9.71,10.58-9.48,25.32,0,35.89h0Z"/></svg>