<?xml version="1.0" encoding="UTF-8"?><svg id="Layer_2" xmlns="http://www.w3.org/2000/svg" viewBox="0 0 709.64 697.47"><defs><style>.cls-1{fill:#58595b;}</style></defs><path class="cls-1" d="m498.72,4.38c-73.03-3.94-146.49-7.27-219.45-.46-75.74,7.07-150.9,24.61-217.4,62.75-18.69,10.72-37.42,22.77-49.15,41.37C-.15,128.45.16,153.46.03,176.7c-.23,42.15,1.04,84.3,3.8,126.36,2.9,44.2,7.61,88.23,13.61,132.12,5.39,39.42,11.3,79.16,20.54,117.89,8.37,35.11,21.63,69.81,45.94,97.08,14.08,15.8,31.87,26.81,51.32,34.68,18.1,7.33,37.81,10.19,57.17,11.67s36.99.91,55.47.56c21.25-.4,42.49-.79,63.74-1.19,43.36-.81,86.72-1.62,130.09-2.42,21.25-.4,42.49-.79,63.74-1.19,16.52-.31,33.06-.84,49.47-2.94,10.31-1.32,20.6-2.74,30.71-5.23,9.89-2.44,19.24-6,28.58-10.06,15.99-6.94,31.16-17.68,42.3-31.15,13.54-16.38,22.84-35.05,28.38-55.58,5.07-18.76,7.19-38.37,8.76-57.69,3.41-41.86,5.68-83.84,7.88-125.77,2.24-42.86,4.05-85.74,5.42-128.63.69-21.66,1.27-43.33,1.74-65,.44-20.51,1.51-41.21.6-61.71-.97-21.77-5.28-43.23-16.39-62.22-9.12-15.58-21.75-27.82-36.26-38.28-12.84-9.25-27.63-15.74-42.44-21.11-13.79-5-28.11-8.47-42.53-11.08-15.98-2.89-32.14-4.89-48.3-6.4-6.92-.65-15.56,3.67-20.3,8.41-4.98,4.98-8.73,13.15-8.41,20.3.33,7.43,2.77,15.13,8.41,20.3s12.33,7.66,20.3,8.41c7.46.7,14.9,1.52,22.32,2.51l-7.63-1.03c23.73,3.21,47.49,8.09,69.65,17.38l-6.86-2.89c10.42,4.43,20.38,9.85,29.4,16.71l-5.81-4.49c6.55,5.06,12.47,10.83,17.54,17.38l-4.49-5.81c4.28,5.64,7.83,11.74,10.63,18.24l-2.89-6.86c3.22,7.68,5.24,15.71,6.42,23.95l-1.03-7.63c1.7,12.68,1.55,25.46,1.35,38.22-.22,14.09-.49,28.17-.81,42.26-.63,27.95-1.44,55.9-2.43,83.85-1.98,55.67-4.7,111.31-8.16,166.91-1.77,28.58-2.88,57.41-6.6,85.81l1.03-7.63c-2.14,15.89-5.45,31.67-11.68,46.5l2.89-6.86c-3.42,7.97-7.66,15.5-12.92,22.41,1.5-1.94,2.99-3.87,4.49-5.81-4.6,5.9-9.85,11.17-15.73,15.8,1.94-1.5,3.87-2.99,5.81-4.49-7.21,5.57-15.13,10.03-23.51,13.59l6.86-2.89c-13.42,5.57-27.62,8.76-41.98,10.74l7.63-1.03c-20.93,2.8-42.05,3.02-63.13,3.41-26.45.49-52.9.99-79.35,1.48-52.68.98-105.37,1.96-158.05,2.94-25.56.48-51.32,1.58-76.75-1.73l7.63,1.03c-12.92-1.75-25.63-4.72-37.69-9.72l6.86,2.89c-8.29-3.53-16.08-7.97-23.25-13.43l5.81,4.49c-7.45-5.79-14.03-12.51-19.8-19.96l4.49,5.81c-7.92-10.38-14.15-21.86-19.24-33.86l2.89,6.86c-7.43-17.73-12.42-36.36-16.43-55.13-4.88-22.82-8.78-45.88-12.44-68.92-2.2-13.87-4.24-27.77-6.11-41.69l1.03,7.63c-9.74-72.57-15.05-145.73-15.81-218.95-.11-10.22-.12-20.44-.05-30.65s-.03-19.75,1.27-29.52l-1.03,7.63c.76-5.24,1.97-10.33,3.95-15.26l-2.89,6.86c1.58-3.68,3.54-7.08,5.94-10.29l-4.49,5.81c3.7-4.76,8.08-8.83,12.83-12.51l-5.81,4.49c10.16-7.7,21.43-14.08,32.64-20.11,11.25-6.06,22.8-11.53,34.57-16.5l-6.86,2.89c41.51-17.39,85.49-27.94,130.01-33.98l-7.63,1.03c64.21-8.61,129.24-8.2,193.85-5.55,18.31.75,36.61,1.69,54.9,2.68,7.11.38,15.37-3.47,20.3-8.41s8.73-13.15,8.41-20.3c-.73-16.25-12.62-27.84-28.71-28.71h0v-.04Z"/><path class="cls-1" d="m240.63,309.32c-41.65-33.97-81.68-69.3-120.97-105.2-22.1-20.18-43.95-40.55-65.73-60.98-8.88-8.33-26.94-8.18-35.87,0-9.7,8.9-9.47,21.29,0,30.18h0v-.03c45.03,42.24,90.42,84.24,137.51,124.87,46.78,40.35,95.27,79.41,146.76,115.51,12.61,8.84,25.23,18.01,38.61,26,9,5.37,18.67,10.32,29.05,13.54,7.99,2.47,17.04,1.55,24.31-2.07,4.28-2.13,8.1-4.93,11.92-7.57,7.19-4.96,14.04-10.29,20.82-15.64,5.14-4.05,10.38-8.07,15.2-12.4,10.12-9.07,19.48-18.81,29.4-28.06,22.85-21.28,46.35-42.04,70.05-62.66,47.27-41.12,95.32-81.66,140.41-124.51,5.59-5.31,11.12-10.66,16.61-16.04,4.45-4.36,7.43-9.18,7.43-15.09,0-5.23-2.76-11.49-7.43-15.09s-11.18-6.51-17.93-6.25-13.59,1.98-17.93,6.25c-41.74,40.96-86.55,79.58-131.25,118.22-22.54,19.49-45.05,38.98-67.16,58.82-11.01,9.88-21.93,19.85-32.69,29.93-8.67,8.13-16.81,16.81-25.81,24.68-5.54,4.84-11.41,9.41-17.26,13.98-6.88,5.37-13.8,10.79-21.24,15.63l5.14-3.34c-1.48.95-3,1.97-4.7,2.63l6.06-2.15c-.25.08-.49.16-.75.19l6.75-.77c-.29,0-.55,0-.84-.04l6.75.77c-1.15-.19-2.23-.55-3.31-.93,2.02.71,4.04,1.44,6.06,2.15-8.31-3.08-16.54-7.43-23.73-12.09l5.14,3.34"/><path class="cls-1" d="m263.07,374.31c-20.24,16.94-41.07,33.49-62.08,49.93-41.91,32.79-84.53,65.13-124.45,99.24-4.95,4.22-9.85,8.48-14.71,12.76-3.94,3.47-6.55,7.28-6.47,11.89.07,4.08,2.62,8.93,6.86,11.67,4.24,2.74,10.12,4.92,16.17,4.61,6.05-.3,12.18-1.75,16.02-5.14,36.94-32.58,76.68-63.38,116.31-94.2,19.98-15.54,39.95-31.09,59.54-46.9,9.76-7.87,19.43-15.81,28.96-23.84,7.68-6.47,14.88-13.37,22.85-19.64"/><path class="cls-1" d="m432.94,378.01c7.4,6.24,14.06,13.1,21.19,19.54,8.84,7.99,17.81,15.89,26.86,23.72,18.17,15.73,36.69,31.19,55.22,46.65,36.76,30.66,73.61,61.3,107.87,93.72,3.56,3.37,9.24,4.81,14.86,5.1,5.62.29,11.09-1.88,15.02-4.61,3.94-2.74,6.31-7.56,6.38-11.63.08-4.59-2.35-8.39-6-11.83-4.5-4.26-9.05-8.5-13.64-12.7-37.02-33.93-76.55-66.11-115.42-98.73-19.48-16.35-38.81-32.82-57.58-49.68"/></svg>