<?xml version="1.0" encoding="UTF-8"?><svg id="Layer_1" xmlns="http://www.w3.org/2000/svg" viewBox="0 0 67.79 83.47"><defs><style>.cls-1{fill:#0073b6;}.cls-2{fill:#0097d6;}.cls-3{fill:#0b3a66;}</style></defs><path class="cls-1" d="m20.86,29.55c.12,0,.12-.19,0-.19s-.12.19,0,.19h0Z"/><path class="cls-2" d="m18.4,11.92l-1.13.57,3.82,2.94c.21-.84.61-1.58,1.2-2.21,1.31-1.74-.89-4.67-2.94-3.82-1.88.77-3.4,1.69-4.85,3.13-.87.86-.92,2.11-.41,3.15s.88,2.05,1.2,3.19l4.76-2.01c-.5-.88-1.03-1.71-1.61-2.54-1.66-2.38-5.45-.97-4.76,2.01.83,3.58,1.79,7.07,4.04,10.04,1.4,1.85,5.02,1.55,4.85-1.31-.14-2.42-.86-5.44-.25-7.82.57-2.24,2.78-4.61,4.04-6.53,1.64-2.5-2.03-5.24-4.09-3.15-3.55,3.6-2.91,11.52.33,15.13,1.14,1.27,3.27.84,4.09-.53s1.5-2.8,1.9-4.34c.08-.3.12-1.63.35-1.82.89-.73,2.26.6,2.26.61l1.2-1.56c-.64.1-1.27-.02-1.88-.36l.53,4.09.47-.52c2.24-2.48-1.43-6.18-3.68-3.68l-.47.52c-1.01,1.12-1.09,3.36.53,4.09,2.27,1.03,6.42,2.12,8.07-.58,1.39-2.27-.6-5.31-2.31-6.76-2.04-1.72-4.98-2.21-7.32-.73-2.88,1.81-2.52,5.72-4.13,8.4l4.09-.53c-1.19-1.33-1.67-6.41-.33-7.77l-4.09-3.15c-1.58,2.41-3.79,4.94-4.56,7.77s-.1,6.27.07,9.2l4.85-1.31c-2-2.64-2.78-5.62-3.51-8.79l-4.76,2.01c.58.83,1.11,1.66,1.61,2.54,1.46,2.55,5.56.85,4.76-2.01-.43-1.55-1.01-3-1.72-4.44l-.41,3.15c.7-.82,1.55-1.41,2.55-1.79l-2.94-3.82c-.83,1.1-1.31,2.15-1.72,3.45-.73,2.29,1.91,3.91,3.82,2.94l1.13-.57c2.99-1.51.36-6.01-2.63-4.5h0Z"/><path class="cls-2" d="m22.74,11.69c1.73-2.55,3.35-4.45,6.41-5.35,2.1-.62,4.2.44,6.42.36,3.34-.12,3.36-5.33,0-5.21-1.73.06-3.16-.7-4.86-.73s-3.34.64-4.83,1.24c-3.48,1.4-5.57,4.01-7.63,7.06-1.88,2.78,2.63,5.39,4.5,2.63h0Z"/><path class="cls-2" d="m39.72,6.09s.1-.07.16-.09l-.62.26s.09-.03.13-.04l-3.3-2.51v.05c.03-.23.06-.46.09-.69,0,.03-.02.06-.03.09l.26-.62-.02.04-.26.62-.09.69.09.69c.08.34.24.63.47.89.12.2.27.35.47.47.16.16.35.27.57.33.2.12.42.18.66.18.35.08.69.06,1.04-.05.09-.04.18-.07.28-.11l-2.53-4.35c-.43.41-.67.88-.87,1.43-.12.34-.18.72-.14,1.08-.01.36.06.69.22,1,.1.32.28.6.54.84.24.25.52.43.84.54.31.16.64.24,1,.22.67-.03,1.37-.25,1.84-.76l.41-.53c.24-.41.35-.84.36-1.31,0-.06,0-.12,0-.18l-.09.69c0-.07.03-.14.05-.21l-.26.62c.03-.07.06-.13.11-.19l-.41.53s.06-.06.09-.09l.41-.53c.19-.3.29-.62.31-.97.06-.23.06-.46,0-.69-.02-.35-.12-.67-.31-.97-.24-.38-.56-.69-.93-.93-.3-.19-.62-.29-.97-.31-.35-.08-.69-.06-1.04.05-.09.04-.18.07-.28.11l2.94,3.82c.07-.11.12-.23.16-.35.05-.12.1-.24.15-.36.08-.25.08-.52.11-.79,0-.47-.12-.91-.36-1.31-.16-.3-.39-.55-.67-.73-.25-.23-.55-.39-.89-.47-.46-.12-.92-.12-1.38,0-.32.07-.65.2-.91.39-.3.16-.55.39-.73.67-.23.25-.39.55-.47.89-.11.35-.12.69-.05,1.04.02.35.12.67.31.97.36.56.89,1.05,1.56,1.2l.69.09c.47,0,.91-.12,1.31-.36h0Z"/><path class="cls-2" d="m40.6,8.34c3.82.4,5.72,3.53,4.72,7.2-.46,1.69.83,3.22,2.51,3.3h.22c-.84-.63-1.67-1.26-2.51-1.9l.08.21,1.2-2.94c-.62.33-1.06.74-1.35,1.38-.78,1.69.11,3.99,2.25,3.92h.39c2.81-.11,3.69-4.53.69-5.13-.49-.1-.97-.19-1.46-.29-1.53-.3-3.43.71-3.3,2.51.1,1.39.3,2.81-.33,4.12-1.45,3,3.04,5.65,4.5,2.63,1.07-2.21,1.23-4.31,1.04-6.75l-3.3,2.51c.49.1.97.19,1.46.29l.69-5.11h-.39c.75,1.32,1.5,2.62,2.25,3.93l-.51.49c.94-.5,1.58-1.9,1.2-2.94l-.08-.21c-.42-1.13-1.28-1.85-2.51-1.91h-.22c.84,1.09,1.67,2.19,2.51,3.29.87-3.2.47-7.15-1.51-9.92-1.85-2.57-5.24-3.56-8.22-3.87-3.33-.35-3.3,4.86,0,5.21h0Z"/><path class="cls-2" d="m30.27,12.71c-.74-1.06-2.19-2.3-.47-3.46.9-.61,2.72-.24,3.67-.09,2.38.38,5.02,1.07,7.02,2.43l1.31-4.85c-4.29-.03-9.91-1.54-13.32,1.76-1.37,1.32-.77,3.92,1.15,4.35s3.94.79,5.95.95,4.7-.39,5.98,1.56l-.26-2.01c.33-1.22-.61-.56-1.5-.44-.98.13-1.98.16-2.96.25-1.62.15-3.19.38-4.76.8l2.53,4.35c1.83-1.54,6.16-5.75,8.79-5.37l-1.56-1.2c.11.25-.88,2.69-.97,2.85-.8,1.46-1.9,2.32-3.43,2.84-1.29.44-2.2,0-3.15,1.09-1.91,2.2,2.51-1.02,2.78.56.06.37-1.99.48-2.51.41-1.69-.2-2.98-1-3.81-2.52-.34-.63-.71-3.79-1.69-3.14.11-.07.74,3.4.75,3.64.21,3.33,5.41,3.35,5.21,0s-1.01-8.43-4.95-9.11c-3.69-.64-5.54,3.18-5.32,6.27.28,3.99,2.71,7.95,6.51,9.41,3.25,1.25,8.93.98,10.95-2.31,4.36-7.08-9.25-11.16-12.91-5.23-2.04,3.31,1.15,5.97,4.25,6.37,4.23.55,8.51-1.01,11.03-4.48,1.65-2.28,4.39-9.13.2-10.48-4.64-1.5-10.68,4.04-13.85,6.71-2.07,1.74.16,4.98,2.53,4.35,2.92-.78,14.28.09,12.86-5.63-1.47-5.93-11.13-4.58-15.31-5.53l1.15,4.35c1.44-1.39,7.77-.25,9.64-.23,2.71.02,3.37-3.46,1.31-4.85-4.08-2.77-11.04-4.52-15.74-2.45-5.18,2.28-4.4,6.7-1.61,10.69,1.9,2.73,6.42.13,4.5-2.63h0Z"/><path class="cls-2" d="m14.8,25.7c-.66,3.5,1.2,7.15,3.69,9.59,1.16,1.14,3.28.97,4.09-.53,1.3-2.41,2.36-4.88,3.22-7.48.72-2.17-1.94-4.09-3.82-2.94-1.1.67-2.02,1.43-2.96,2.33l4.09,3.15c.85-1.73,2.17-2.61,3.86-3.4.41-.19,4.51-1.75,4.51-1.74v-2.63c-.78,1.04-4.6,1.81-5.86,2.57-1.42.86-2.5,1.81-3.32,3.27l4.76.62c-.26-.81-1.61-4.92-.77-5.61l-2.53.67c2.09.6,6.48,4.38,7.15,6.4l.26-2.01c-.8,1.7-2.27,3.53-3.35,5.09l2.94-1.2c-.69-.18-3.16-1.57-3.53-2.15-1.28-2.04-5.06-1.4-4.85,1.31.13,1.62.25,3.24.38,4.86l4.85-1.31-.89-1.27c-1.56-2.22-5.93-.93-4.76,2.01,1.05,2.61,2.24,4.59,4.81,5.92,1.63.84,4.25,2.22,6.09,1.66,4.22-1.27,3.65-9.76,2.91-12.91-.85-3.58-4.17-6.99-7.5-3.5-3.72,3.89-.44,9.03,2.66,11.99,2.42,2.31,6.11-1.36,3.68-3.68-.6-.57-4.25-4.19-2.5-4.7l-2.01-.26c1.53.76.72,4.95.82,6.08.12,1.31.44,1.3-.33,1.29-1.55-.03-3.12-2.05-3.61-3.27l-4.76,2.01.89,1.27c1.34,1.91,5.07,1.49,4.85-1.31-.13-1.62-.25-3.24-.38-4.86l-4.85,1.31c1.27,2.01,4.35,3.94,6.64,4.54,1.19.31,2.27-.23,2.94-1.2,1.62-2.33,4.53-5.11,3.26-8.15s-4.85-5.6-7.51-7.46c-7.39-5.17-7.62,4.93-6.03,9.82.67,2.06,3.62,2.65,4.76.62,1.8-3.22,6.95-2.9,9.18-5.85.52-.69.47-1.94,0-2.63-3.96-5.88-15.07.47-17.37,5.14-1.27,2.59,1.87,5.28,4.09,3.15.55-.61,1.19-1.11,1.9-1.51l-3.82-2.94c-.72,2.18-1.61,4.22-2.69,6.24l4.09-.53c-.6-.58-2.51-3.68-2.36-4.52.61-3.27-4.4-4.68-5.02-1.38h0Z"/><path class="cls-2" d="m44.82,26.04l-1.7.49-.29-1.19c-.61-1.43.58-2.91-1.38-3.11-1.66-.17-.98.76-1.02,2.16-.02.81.11,2.28-.13,3.01l2.51-1.91c-1.26.12-6.16-.37-7.06-1.19-2.13-1.91-5.68.52-4.09,3.15.89,1.47,1.74,2.95,2.57,4.46,1.04,1.9,4.3,1.58,4.76-.62.43-2.04.75-4.08,1.03-6.14h-5.21c.22,4.25-.63,8.71-1.02,12.95-.22,2.41,2.91,3.21,4.44,1.84,2.54-2.27,4.29-5.11,6.26-7.86s-2.51-5.25-4.5-2.63c-1.7,2.25-3.09,4.58-4.27,7.13-1.05,2.26,1.15,4.94,3.56,3.56,2.65-1.52,4.59-3.62,6.5-5.98l-4.44-1.84c-.28,3.04-3.98,4.94-6.6,4.89-3.35-.06-3.35,5.14,0,5.21,5.76.11,11.27-4.24,11.81-10.1.2-2.16-3.05-3.56-4.44-1.84-1.62,2-3.18,3.87-5.45,5.16l3.56,3.56c1.18-2.56,2.58-4.89,4.27-7.13l-4.5-2.63c-1.71,2.39-3.24,4.83-5.45,6.81l4.44,1.84c.39-4.24,1.24-8.7,1.02-12.95-.18-3.44-4.77-3.24-5.21,0-.21,1.61-.51,3.17-.84,4.76l4.76-.62c-.82-1.51-1.68-2.99-2.57-4.46l-4.09,3.15c1.52,1.36,2.86,1.52,4.89,1.84,1.82.29,4.02,1.05,5.85.87,1.21-.12,2.12-.74,2.51-1.91,1.07-3.19,1.07-10.1-2.76-11.68-4.52-1.86-5.45,4.05-5.13,7.09.43,4.08,1.92,9.18,6.83,9.37s6.58-4.68,5.58-8.91c-.77-3.26-5.79-1.88-5.02,1.38h0Z"/><path class="cls-2" d="m32.88,44.62c2.04.8,4.11,1.39,5.98-.2.61-.52,1.06-1.18,1.48-1.86.23-.38.44-.76.66-1.14.15-.25.3-.51.44-.76.24-.42.29-.51.15-.25l-1.15.67.23-.07-3.2-3.2c-.44,1.08-1.05,2.08-1.72,3.03-.81,1.15-.21,2.89.93,3.56,1.3.76,2.75.22,3.56-.93.94-1.34,1.63-2.76,2.25-4.28.76-1.88-1.45-3.72-3.2-3.2s-2.31,1.98-3.12,3.38c-.17.28-.37.57-.51.87-.3.64-.07,0,.02.17.28-.07.32-.13.12-.18l-.39-.14c-.38-.16-.76-.32-1.15-.47-1.31-.51-2.86.56-3.2,1.82-.41,1.47.5,2.69,1.82,3.2h0Z"/><path class="cls-2" d="m24.91,42.65c.44,1.11.71,2.16.76,3.35h5.21c-.13-.98-.26-1.95-.39-2.93-.42-3.21-5.19-3.46-5.21,0,0,1.41.36,3.52-.03,4.89-.33,1.13-1.5,1.94-2.05,3.01-1.53,2.97,2.96,5.61,4.5,2.63.81-1.57,2.22-2.54,2.62-4.36.43-1.96.17-4.17.18-6.16h-5.21c.13.98.26,1.95.39,2.93.42,3.21,5.34,3.45,5.21,0-.06-1.65-.33-3.2-.94-4.74-1.22-3.08-6.25-1.74-5.02,1.38h0Z"/><path class="cls-2" d="m23.29,49.73c-7.9,2.57-16.92,7.14-21.37,14.55-1.73,2.88,2.77,5.5,4.5,2.63,3.73-6.22,11.63-10,18.26-12.16,3.17-1.03,1.81-6.06-1.38-5.02h0Z"/><path class="cls-2" d="m4.19,73.07v2.59c-.01,3.37,5.01,3.32,5.2,0s1.08-6.26,2.75-9.18l-2.94,1.2c.51.21,4.62,2.41,4.03,2.44-.42.03.16-2.19.51-3.2,1.06-3.06,3.29-5.4,6.04-6.99l-3.56-3.56c-3.22,5.32-11.41,12.26-9.01,19.39.38,1.13,1.31,1.87,2.51,1.91,2.31.09,4.26-1.3,6.3-2.22,4.01-1.8,7.61-1.77,11.39.54l.62-4.76c-5.54.87-11.14.04-16.68.95-3.31.54-1.89,5.53,1.38,5.02,4.39-.69,8.79-1.15,13.24-1.33,3.41-.14,8.44-.85,11.65.45l.69-5.11c-3.5.34-6.93.34-10.41-.32-2.62-.5-9.64-1.77-10.16-4.88l-2.51,3.3c5.74-.48,11.41-.37,17.13.32,2.99.36,3.41-4.32.69-5.11-4.45-1.3-8.84-2.76-13.18-4.38l-.69,5.11c2.8-.09,5.28.54,7.58,2.19,1.57,1.13,1.32,1.18,3.14,1.48,4,.66-3.84-.87-3.08-.66-.79-.21-6.86-3.47-6.33-4.18s4.95,1.56,5.28,1.77c1.38.87,2.48,1.97,3.54,3.21l3.15-4.09c-.8-.35-6.76-3.84-6.34-4.75l-2.25,1.29c1.3.58,2.32,1.49,3.05,2.72,1.71-1.49,1.47-2.63-.72-3.41-.96-2.42-1.67-2.55-2.14-.38,2.03-.53,4.04-.44,6.03.27l.67-2.53c.29-.33-7.96-3.84-9.63-3.73l.69,5.11c3.23-.87,17.76-.43,15.58,5.42-.55,1.49-2.7,2.7-4.01,3.27-.69.3-4.73.85-4.81,2,.06-.93,10.82-2.02,11.97-.94l1.84-4.44c-1.79-.14-8.65-.75-9.53-2.87l-1.82,3.2c2.13-.39,4.16-.6,6.31-.46.78.05,4.51.33,4.71.49-.6-.45-7.88,1.31-9.42,1.47-2.68.27-3.81,4.52-.69,5.11,6.31,1.2,12.63,2.39,18.94,3.59l.69-5.11c-5.04.52-10.08.84-15.15.96l.69,5.11c4.78-.95,9.51-.55,14.34-.42,2.32.06,5.68.39,6.88-2.24,1.95-4.24-5.46-9.52-8.87-10.43-4.18-1.13-7.59,2.41-5.14,6.36,1.52,2.45,4.53,2.88,6.77,4.38,2.09,1.4,3.31,3,6.07,2.54.92-.15,1.52-1.02,1.82-1.82,3.01-8.25-1.75-20.08-10.6-22.01-1.78-.39-3.92,1.22-3.2,3.2.68,1.87,1.67,2.8,2.97,4.26,2.26,2.55,2.85,5.55,3.4,8.82l5.02-1.38c-.8-3.73-1.88-9.64-6.17-10.82-3.01-.83-9.88-.3-11.79,2.56-.48.73-.49,1.9,0,2.63,2.27,3.36,11.68,6.5,11.58-.19-.11-6.99-13.12-9.15-18.07-9.12-2.07.01-3.67,2.97-1.84,4.44,4.99,4.03,10.28,7.42,16.09,10.16,2.99,1.41,5.61-2.87,2.63-4.5-3.33-1.82-6.66-3.63-9.99-5.45-2.88-1.57-8.15-2.7-6.16-6.63,1.51-2.97-2.91-5.6-4.5-2.63s-3.23,6.08-4.85,9.12l4.76,2.01c1.43-3.87,3.14-7.53,5.16-11.13h-4.5c1.73,4.08,3.45,8.17,5.18,12.25,1.1,2.59,4.7.97,4.85-1.31l.46-6.87-5.11.69,2.92,8.69,4.76-2.01c-1.68-3.78-2.97-7.64-3.99-11.65-.82-3.25-5.82-1.87-5.02,1.38,1.02,4.19,2.3,8.24,3.86,12.26l4.76-2.01c-2.27-3.79-3.86-7.67-4.93-11.96l-2.51,3.3c.37-.02,3.16,4.84,3.53,5.38,1.32,1.94,5.1,1.47,4.85-1.31s-.64-5.19-1.3-7.76l-4.76,2.01c1.38,2.15,2.6,4.35,3.68,6.66,1.23,2.64,5.89.73,4.76-2.01l-1.36-3.3-3.2,3.2c2.79.92,5.28,2.13,7.75,3.69l.62-4.76c-1.33.21-2.65.21-3.98,0l1.31,4.85c3.42-2.46,7.85,1.27,9.02,4.55.85,2.39,1.11,5.13,1.64,7.61.7,3.28,5.71,1.89,5.02-1.38-1.16-5.46-1.62-10.55-6.33-14.14-3.57-2.71-8.11-3.92-11.97-1.14-2.15,1.55-1.32,4.6,1.31,4.85,1.88.18,3.51.07,5.36-.19,2.37-.33,2.32-3.69.62-4.76-2.85-1.81-5.79-3.16-8.99-4.22-1.74-.57-3.96,1.36-3.2,3.2l1.36,3.3,4.76-2.01c-1.09-2.32-2.3-4.51-3.68-6.66-1.58-2.45-5.51-.92-4.76,2.01.55,2.16.92,4.13,1.12,6.38l4.85-1.31c-1.9-2.81-4-8.2-8.02-7.96-1.7.1-2.94,1.58-2.51,3.3,1.17,4.7,2.97,9.05,5.46,13.2,1.46,2.43,5.86.84,4.76-2.01-1.56-4.02-2.83-8.07-3.86-12.26l-5.02,1.38c1.13,4.45,2.65,8.7,4.51,12.89,1.19,2.69,5.69.78,4.76-2.01l-2.92-8.69c-.95-2.82-4.91-2.26-5.11.69-.15,2.29-.31,4.58-.46,6.87l4.85-1.31c-1.73-4.08-3.45-8.17-5.18-12.25-.78-1.85-3.62-1.55-4.5,0-2.24,3.98-4.11,8.09-5.69,12.37-1.02,2.77,3.38,4.59,4.76,2.01,1.62-3.04,3.23-6.08,4.85-9.12l-4.5-2.63c-1.73,3.42-3.3,6.36.13,9.33,2.16,1.87,5.4,3.06,7.9,4.42,3.33,1.82,6.66,3.63,9.99,5.45l2.63-4.5c-5.38-2.54-10.4-5.61-15.04-9.35l-1.84,4.44c2.6-.02,5.11.26,7.56,1.18,1.44.54,5.53,3.4,3.43.3v2.63c-.8,1.2-.52.37.96.28s3.67-.88,4.99-.12c1.57.91,2.13,5.16,2.49,6.85.71,3.31,5.57,1.87,5.02-1.38-.41-2.45-.87-4.88-1.93-7.15s-3.67-3.83-4.44-5.93l-3.2,3.2c6.12,1.33,9.02,9.98,6.96,15.6l1.82-1.82c-.22.04-3.25-2.98-4.22-3.23-.59-.16-2.37-.79-2.63.38.02-.08,4.5,3.58,4.65,4.4l.67-2.53c-1.2,1.26-8.23-.04-9.92-.04-2.91,0-5.74.27-8.6.84s-2.22,5.18.69,5.11c5.07-.12,10.11-.44,15.15-.96,2.67-.28,3.82-4.52.69-5.11-6.31-1.2-12.63-2.39-18.94-3.59l-.69,5.11c3.96-.4,16.76-.64,15.06-7.48-1.61-6.48-13.41-5.1-18.05-4.24-1.27.23-2.33,1.98-1.82,3.2,2.19,5.28,9.51,6.29,14.55,6.7,2.26.18,3.42-2.97,1.84-4.44-2.71-2.54-6.28-2.07-9.77-1.7-2.89.31-8.32.36-10.2,3.11-1.36,1.99-.65,4.65,1.19,6.06,2.59,1.98,6.88,1.23,9.66.12,4.97-1.99,11.06-8.49,6.34-13.52-5.27-5.61-13.85-7.09-21.02-5.15-2.76.75-2.3,5.3.69,5.11,4.03-.26,9.47,6.64,13.31,2.2.58-.67,1-1.63.67-2.53-1.74-4.73-13.01-6.93-15.27-1.64-1.97,4.62,7,12.81,11.33,9.74,4.68-3.32-3.29-11.61-7.3-11.12-2.54.32-3.32,2.89-2.58,5.07,1.26,3.72,5.13,6.59,8.55,8.09,2.68,1.18,5.16-1.75,3.15-4.09-2.73-3.19-11.52-9.66-15.74-5.39-4.52,4.57,2.3,11.06,6.25,12.63,3.33,1.33,12.97,3.21,11.26-3.42-1.6-6.19-9.96-9.33-15.58-9.15-3.04.09-3.4,4.11-.69,5.11,4.34,1.62,8.73,3.07,13.18,4.38l.69-5.11c-5.72-.69-11.39-.79-17.13-.32-1.81.15-2.8,1.53-2.51,3.3.71,4.29,5.16,5.89,8.83,7.17,5.4,1.89,11.09,2.41,16.76,1.86,3-.29,3.44-4,.69-5.11-3.78-1.53-9.06-.8-13.03-.63-4.91.2-9.77.76-14.62,1.52l1.38,5.02c5.53-.91,11.14-.08,16.68-.95,2.33-.37,2.37-3.69.62-4.76-2.95-1.8-6.16-2.82-9.65-2.62-1.73.1-3.38.54-4.99,1.17s-4,2.47-5.69,2.41l2.51,1.91c-1.62-4.8,6.21-11.6,8.49-15.37,1.36-2.25-1.33-4.85-3.56-3.56-4.18,2.42-7.28,6.12-8.64,10.8-.76,2.62-1.87,8.05,1.69,9.26,2.93,1,7.37-2.24,8.19-4.96,1.4-4.65-4.6-6.54-7.81-7.87-1.04-.43-2.42.29-2.94,1.2-2.12,3.71-3.21,7.55-3.46,11.81h5.21v-2.59c.01-3.35-5.19-3.36-5.2,0h0Z"/><path class="cls-3" d="m16.41,16.06v2.58c.63-.09,1.27-.17,1.91-.26-.54-1.62-.84-3.26-.9-4.96-.04-1.06-1.66-1.37-1.92-.26-.12.52-.31.94-.61,1.39l1.78.23c-.13-.61-.14-1.21-.02-1.82.09-.47-.13-1.12-.68-1.2-4.6-.67-1.12,9.14-.43,10.97.19.51.64.81,1.2.68.64-.14,1.48-.39,2.09-.01.53.33.61,1.06.73,1.62l1.78-.75c-.27-.38-.54-.76-.8-1.14-.2-.28-.68-.75-.74-1.09-.1-.61.63-1.72.9-2.26l-1.78-.23c.36.9.54,1.8.54,2.77l1.92-.26c-.68-1.64-1.36-3.28-2.44-4.71-.64-.84-2.07-.39-1.78.75.11.43.21.87.32,1.3l.16.65c.02.53.29.52.81-.03.03-.18-.4-.85-.46-1.05-.11-.31-.19-.63-.27-.95-.35-1.43-.59-2.85-1.22-4.2-.46-1-2.13-.29-1.78.75s.73,2.03,1.17,3.02c.36.81.72,1.97,1.6,2.35.51.22,1.32.11,1.43-.58.27-1.71.55-3.43.82-5.14h-1.88c.67,1.71,1.29,3.43,1.84,5.18.39,1.23,2.06.7,1.88-.52-.12-.81-.21-1.63-.27-2.45-.03-.34-.05-.68-.06-1.02-.01-.23-.02-.45-.03-.68.07-.48-.06-.47-.38.04l-1.24-.94c-.07.82-.24,1.58-.51,2.36-.3.89,1.01,1.71,1.63.95,1.57-1.92,3.05-3.92,3.23-6.48h-1.95c.05,1.37-.25,2.69-.95,3.88-.74,1.25-1.87,2.02-3,2.89l1.43,1.1c.69-2.51,1.48-4.99,2.38-7.43.38-1.04-1.27-1.72-1.78-.75-.41.77-.85,1.51-1.34,2.22-.46.68-.97,1.5-1.68,1.93l1.47.84c.02-1.69.56-3.23,1.56-4.59.58-.79-.55-1.86-1.34-1.34s-1.6,1.06-2.38,1.61c-.62.44-1.2.94-1.32,1.73-.17,1.11,1.1,1.66,1.78.75.86-1.14,2.11-1.8,2.99-2.91.75-.95,1.29-2.05,2.21-2.86l-1.67-.69c.18,1.99-.41,4.15-.73,6.11-.2,1.22,1.47,1.73,1.88.52.24-.71.5-1.4.82-2.08.25-.55.52-1.44.97-1.83h-1.38l.06.05-.25-.95-.02.06c-.41,1.19,1.48,1.7,1.88.52l.02-.06c.1-.29,0-.75-.25-.95l-.06-.05c-.44-.34-.94-.38-1.38,0-.59.52-.95,1.52-1.28,2.23-.38.83-.72,1.68-1.01,2.55l1.88.52c.18-1.13.37-2.27.53-3.4.16-1.07.36-2.15.26-3.23-.08-.85-1-1.27-1.67-.69-1,.88-1.54,2.06-2.37,3.07-.45.55-1.03.93-1.57,1.37-.61.5-1.08,1.1-1.55,1.72l1.78.75c.08-.54.8-.82,1.22-1.1.53-.36,1.06-.72,1.59-1.08l-1.34-1.34c-1.2,1.62-1.81,3.56-1.83,5.57,0,.74.84,1.22,1.47.84,1.67-1,2.83-3.18,3.72-4.86l-1.78-.75c-.9,2.44-1.69,4.92-2.38,7.43-.2.75.73,1.65,1.43,1.1,1.4-1.07,2.79-2.04,3.7-3.59.87-1.47,1.28-3.16,1.22-4.86-.05-1.26-1.87-1.25-1.95,0-.14,1.98-1.45,3.62-2.66,5.1l1.63.95c.32-.94.49-1.89.58-2.88.06-.68-.67-1.04-1.24-.94-1.19.22-1.07,1.61-1.03,2.52.07,1.34.21,2.66.41,3.99l1.88-.52c-.55-1.75-1.17-3.48-1.84-5.18-.31-.78-1.71-1.06-1.88,0-.27,1.71-.55,3.43-.82,5.14l1.43-.58c-.45-.2-.84-1.5-1.03-1.95-.32-.73-.59-1.49-.84-2.25l-1.78.75c.94,2.03.67,4.89,2.24,6.61.67.73,1.91.91,2.46-.09s-.21-2.7-.47-3.74l-1.78.75c.98,1.29,1.63,2.75,2.25,4.24.39.95,1.92.93,1.92-.26s-.2-2.23-.61-3.28c-.28-.7-1.38-1.06-1.78-.23-.47.96-1.2,2.2-1.19,3.29s1.21,2.29,1.83,3.17,2.01.36,1.78-.75-.6-2.2-1.62-2.8c-1.12-.65-2.4-.45-3.59-.18l1.2.68c-.53-1.4-1.05-2.81-1.4-4.26-.17-.72-.31-1.44-.36-2.17-.02-.33-.03-.65-.02-.98s.27-1.08-.19-1.14l-.68-1.2c-.19.97-.19,1.89.02,2.86.19.88,1.34.88,1.78.23.39-.57.65-1.18.8-1.85l-1.92-.26c.06,1.87.38,3.7.97,5.48.34,1.02,1.92.88,1.92-.26v-2.58c0-1.26-1.94-1.26-1.95,0h0Z"/><path class="cls-3" d="m20.27,9.29c1.16-1.81,2.73-3.26,4.63-4.26,1.05-.56,2.14-1.05,3.22-1.56s2.07-1.01,3.29-.96l-.49-1.82c-1.77,1.1-3.86,1.5-5.64,2.56s-3.31,2.57-4.79,4.05c-.79.79.22,2.08,1.18,1.53.48-.27.96-.48,1.49-.63.25-.07.5-.13.75-.17.09-.01.64-.09.61-.1l-.45-.58.03.11.45-1.1c-1.96.89-3.81,2-5.53,3.31l1.18.15c-.53-.53-1.18-.69-1.9-.55-1.23.24-.71,2.12.52,1.88,0,.02,0,.03,0,.05.27.28.85.41,1.18.15,1.72-1.31,3.56-2.41,5.53-3.31.38-.17.56-.72.45-1.1-.33-1.13-1.57-.95-2.49-.81-1,.15-1.94.51-2.82,1.01l1.18,1.53c1.41-1.41,2.84-2.86,4.59-3.86s3.74-1.39,5.45-2.45c.84-.52.47-1.78-.49-1.82-1.35-.06-2.52.39-3.72.96-1.26.6-2.54,1.17-3.77,1.83-2.18,1.16-4,2.88-5.33,4.96-.68,1.06,1.01,2.04,1.69.99h0Z"/><path class="cls-3" d="m23.43,12.73c1.34.47,2.55,1.29,3.93,1.68,1.49.41,3.09.29,4.6.58.76.15,1.35-.44,1.2-1.2-.07-.3-.07-.6-.01-.9l-.98.98c.53-.04.94.03,1.44.21v-1.88l-.87.13c-.95.14-.91,1.71,0,1.88,2.04.38,4.08.68,6.14.89,1.63.16,3.24.29,4.54-.88.44-.39.36-1.27-.2-1.53-.3-.14-.55-.28-.82-.48l-.49,1.82c.96.07,1.89.23,2.82.47l-.68-.68.13.4.94-1.24c-.35.07-.67.01-.99-.17l-.75,1.78c.89.31,1.94.75,2.29,1.7l1.63-.95c-.65-.59-1.24-1.21-1.78-1.89l-1.38,1.38c.57.53,1.1,1.08,1.61,1.68l1.38-1.38-2.09-1.74c-.96-.8-2.35.57-1.38,1.38l2.09,1.74c.96.8,2.2-.42,1.38-1.38-.51-.59-1.04-1.15-1.61-1.68-.94-.88-2.15.42-1.38,1.38.54.69,1.13,1.31,1.78,1.89s2,.03,1.63-.95c-.62-1.67-2.04-2.5-3.66-3.07-1.04-.37-1.73,1.28-.75,1.78.65.33,1.24.49,1.97.44.6-.04,1.15-.59.94-1.24-.3-.92-.66-1.07-1.57-1.27-.85-.18-1.71-.29-2.58-.35-1.05-.07-1.21,1.31-.49,1.82.27.19.52.34.82.48l-.2-1.53c-.94.85-2.87.35-4,.22-1.6-.18-3.2-.43-4.78-.73v1.88l.87-.13c1.06-.15.79-1.59,0-1.88-.64-.24-1.27-.33-1.95-.28-.57.04-.92.42-.98.98-.05.5-.01.93.08,1.42l1.2-1.2c-1.51-.29-3.12-.19-4.6-.58-1.37-.37-2.59-1.21-3.93-1.68-1.19-.42-1.7,1.47-.52,1.88h0Z"/><path class="cls-3" d="m45.04,16.85c.59.62.74,1.49.98,2.28.27.9.9,1.82.82,2.78h1.95c-.07-1.53-.18-3.16.61-4.53l-1.82-.49c0,.56.01,1.13.02,1.69.01,1.05,1.76,1.38,1.92.26.09-.62.23-1.22.44-1.81l-1.63.43c.28.31.39.65.46,1.06.18,1.08,1.98.83,1.92-.26-.08-1.39-.27-2.76-.59-4.11l-1.88.52.51,1.43c.42,1.19,2.13.72,1.88-.52-.3-1.52-.51-3.04-.62-4.58-.09-1.24-1.94-1.27-1.95,0-.03,2.07-.17,4.21-.99,6.14l1.78.23c-.66-1.74-.94-3.57-1.2-5.4-.08-.52-.74-.81-1.2-.68-.56.15-.76.68-.68,1.2.16,1.13.41,2.24.74,3.34.38,1.23,2.07.7,1.88-.52-.24-1.53-.4-3.06-.51-4.6l-1.82.49c.47,1.01.91,2.04,1.32,3.07l1.78-.75c-.66-1.41-1.16-2.87-1.53-4.38-.29-1.22-2.18-.7-1.88.52.4,1.68.99,3.29,1.72,4.85.47.99,2.19.28,1.78-.75-.47-1.19-.98-2.38-1.52-3.54-.41-.87-1.88-.45-1.82.49.12,1.72.31,3.42.58,5.12l1.88-.52c-.34-1.09-.59-2.2-.74-3.34l-1.88.52c.26,1.83.54,3.66,1.2,5.4.26.68,1.42,1.09,1.78.23.97-2.27,1.23-4.67,1.26-7.12h-1.95c.13,1.71.36,3.41.69,5.1l1.88-.52-.51-1.43c-.42-1.18-2.17-.72-1.88.52s.45,2.38.52,3.59l1.92-.26c-.13-.74-.47-1.37-.97-1.92-.52-.58-1.41-.22-1.63.43-.2.59-.35,1.19-.44,1.81l1.92.26c0-.56-.01-1.13-.02-1.69-.01-.96-1.33-1.34-1.82-.49-.97,1.69-.97,3.63-.88,5.52.06,1.27,1.84,1.24,1.95,0s-.61-2.34-.94-3.48c-.31-1.08-.64-2.13-1.42-2.96-.86-.91-2.24.47-1.38,1.38h0Z"/><path class="cls-3" d="m41.31,12.13l1.12.74,2.07-5c-4.68.43-9.4.36-14.04-.41-.83-.14-1.86-.79-2.61-.85-1.08-.94-1.3-.62-.65.94-.23,1.49.15,1.84,1.15,1.08,1.16.07,2.78-.97,4.11-1,1.77-.04,3.89.38,4.97,1.93l2.53-4.41c-2.56.09-4.91-.14-7.41-.77l-.78,5.75c4.12-.3,11.39-2.08,12.77,3.2.87,3.35,5.49,2.39,5.75-.78l.12-1.45h-5.86c.17.77.21,1.55.12,2.33l5.75-.78c-.89-3.34-1.02-5.94-4.28-7.83-1.59-.92-3.45-1.54-5.23-1.95-2.29-.53-5.38-.16-7.48-1.21l-1.48,5.46c1.57.11,3.14.22,4.71.34,3.76.27,3.74-5.59,0-5.86-1.57-.11-3.14-.22-4.71-.34-2.87-.2-4.04,4.18-1.48,5.46,2.14,1.07,4.12,1.11,6.45,1.4,1.8.22,4.89.52,6.25,1.76,1.14,1.04,1.22,2.96,1.59,4.33.86,3.24,5.66,2.5,5.75-.78.08-.78.04-1.56-.12-2.33-.49-3.68-5.54-3.85-5.86,0l-.12,1.45,5.75-.78c-.77-2.96-1.71-6.11-4.86-7.28-4.03-1.49-9.41-.52-13.55-.22-3.15.23-4.14,4.89-.78,5.75,2.99.76,5.87,1.09,8.96.98,2.06-.07,3.85-2.49,2.53-4.41-2.58-3.74-6.92-5.18-11.38-4.73-2.88.29-9.31,1.74-9.49,5.48-.15,3.12,4.08,5.22,6.65,5.8,5.09,1.14,11.08,1.06,16.24.58,2.33-.21,4.12-3.16,2.07-5-1.29-1.16-2.09-1.61-3.7-2.25-3.51-1.39-5.03,4.28-1.56,5.65h0Z"/><path class="cls-3" d="m38.17,2.1c.7-.17,1.4-.25,2.12-.25l-.16-.61c-.4.25-.81.51-1.21.76l-.07.04c.14.02.17.02.08-.02-.04-.03-.1-.05-.14-.07-.11-.06-.22-.11-.33-.17s-.22-.11-.33-.17l-.14-.07-.09-.05c-.05-.03-.06-.03-.03-.01l.08.14v-.02c0,.06,0,.12,0,.17v-.02c-.13.08-.26.15-.39.23.26.04.52.07.78.11l.37.05.21.03h.1s.05.02.02.02l-.12-.12s-.01-.09-.02-.01c0,.04,0,.09,0,.13,0,.08,0,.16,0,.24,0,.16.01.32.02.48s.12.3.28.32c.17.02.29-.08.36-.23.12-.29.29-.57.5-.81.11-.13.13-.33,0-.46-.12-.12-.34-.13-.46,0-.29.33-.5.69-.67,1.1l.64.09c0-.25-.02-.49-.03-.74,0-.13,0-.27-.06-.39s-.18-.19-.31-.22c-.24-.05-.49-.07-.73-.1s-.49-.07-.73-.1c-.18-.03-.34.04-.4.23-.13.37.34.53.6.65.14.07.28.14.42.21s.29.17.44.21c.18.05.33-.02.48-.12l.4-.25c.26-.17.53-.33.79-.5s.16-.61-.16-.61c-.77,0-1.54.09-2.29.28-.41.1-.23.73.17.63h0Z"/><path class="cls-3" d="m42.38,14.77c.43,0,.87,0,1.3-.01l-.16-.61s-.06.03-.09.04c.08-.03,0,0-.01,0-.05.02-.11.04-.16.06-.1.03-.21.06-.31.08-.05.01-.1.02-.15.03-.02,0-.03,0-.05,0,.05,0,.05,0,.01,0-.02,0-.05,0-.07,0-.11.01-.22.02-.34.01-.17,0-.33.15-.33.33s.14.32.33.33c.52,0,1.02-.11,1.5-.33.12-.06.19-.24.15-.37-.04-.13-.17-.24-.31-.24-.43.02-.87.02-1.3.01-.17,0-.33.15-.33.33s.14.32.33.33h0Z"/><path class="cls-3" d="m21.28,52.33c1.03,2.08,2.74,3.74,4.68,4.98.94.6,1.94,1.09,2.97,1.53.58.25,1.16.5,1.78.64.72.16,1.45.18,2.18.17.85,0,1.67-.74,1.63-1.63s-.72-1.64-1.63-1.63c-.51,0-1.02.01-1.41-.08-.24-.06-.47-.13-.7-.21-.12-.04-.23-.09-.34-.13-.28-.11.16.07-.12-.05-.94-.4-1.86-.87-2.72-1.42-.78-.5-1.34-.94-2.03-1.66-.16-.16-.3-.33-.45-.5-.04-.04-.17-.2-.06-.07-.07-.09-.13-.18-.2-.27-.29-.42-.55-.85-.77-1.31-.38-.77-1.52-1.04-2.23-.58-.78.51-.99,1.41-.58,2.23h0Z"/><path class="cls-3" d="m42.97,50.85l.04.4h3.25l-.1-.78c-.11-.87-.67-1.63-1.63-1.63-.81,0-1.72.75-1.63,1.63.11,1.05-.11,1.77-.74,2.69-.53.78-1.48,1.53-2.3,2.09-.47.32-.95.67-1.47.9-.4.18-1.06.3-1.57.38-1.32.22-2.64.41-3.96.62-.87.14-1.35,1.22-1.14,2,.25.93,1.13,1.27,2,1.14,1.49-.23,2.99-.42,4.46-.71s2.62-1.02,3.79-1.86c2.32-1.68,4.5-4.17,4.17-7.26h-3.25l.1.78c.11.87.67,1.63,1.63,1.63.81,0,1.72-.75,1.63-1.63l-.04-.4c-.09-.87-.68-1.63-1.63-1.63-.81,0-1.72.75-1.63,1.63h0Z"/><path class="cls-3" d="m21.27,50.51c-6.38,1.29-11.4,5.89-16.28,9.92-2.43,2-4.09,4.3-4.44,7.49-.39,3.52-.28,7.14-.38,10.68-.06,2.09,3.19,2.09,3.25,0,.09-3.19.12-6.39.29-9.57.07-1.37.31-2.66,1.1-3.81.73-1.07,1.78-1.93,2.78-2.74,4.43-3.58,8.8-7.66,14.54-8.83,2.05-.42,1.18-3.55-.87-3.14h0Z"/><path class="cls-3" d="m5.94,80.91c3.35-.11,6.71-.14,10.06-.07.82.02,1.71-.76,1.63-1.63-.06-.65-.16-1.26-.38-1.87l-1.57,2.06c1.84.09,3.67.17,5.51.26,2.09.1,2.09-3.16,0-3.25-1.84-.09-3.67-.17-5.51-.26-1-.05-1.92,1.09-1.57,2.06.12.33.23.66.26,1l1.63-1.63c-3.35-.06-6.71-.04-10.06.07-2.09.07-2.1,3.33,0,3.25h0Z"/><path class="cls-3" d="m6.06,81.1c20.05,0,40.11,0,60.16,0,2.09,0,2.1-3.25,0-3.25-20.05,0-40.11,0-60.16,0-2.09,0-2.1,3.25,0,3.25h0Z"/><path class="cls-3" d="m66.04,81.06l-1.47-7.97-3.67,1.01c.84,2.1,1.61,4.24,2.3,6.39l3.48-1.47c-2.42-5.22-2.64-11.17-5.48-16.25-1.2-2.14-4.49-.22-3.29,1.92,2.81,5.03,3.07,11.04,5.48,16.25.91,1.96,4.14.57,3.48-1.47-.69-2.16-1.46-4.29-2.3-6.39-.9-2.26-4.12-1.43-3.67,1.01l1.47,7.97c.19,1.01,1.41,1.59,2.34,1.33,1.06-.29,1.52-1.33,1.33-2.34h0Z"/><path class="cls-3" d="m45.05,53.49c1.16.39,2.21.99,3.18,1.74l1.64-2.81-1.32-.64-1.25,2.97c.84.27,1.6.65,2.34,1.14l1.25-2.97c-.81-.29-1.53-.74-2.16-1.32l-1.58,2.72c1.1.17,1.99.99,2.95,1.51,1.08.59,2.23,1.08,3.39,1.49,1.74.62,2.86-2.1,1.25-2.97-1.01-.55-2.02-1.09-3.04-1.64-1.84-1-3.43,1.71-1.64,2.81,2.21,1.36,4.12,3.06,5.78,5.06,1.17,1.41,3.66-.48,2.56-1.97-.95-1.28-1.89-2.55-2.84-3.83l-1.84,2.39c1.75.71,3.31,2.97,3.76,4.73.65,2.54,1.09,5.25,1.07,7.88-.01,2.09,3.24,2.1,3.25,0,0-1.65-.18-3.28-.45-4.91s-.46-3.27-1.03-4.76c-.99-2.6-3.16-5.03-5.74-6.08-1.27-.52-2.66,1.29-1.84,2.39.95,1.28,1.89,2.55,2.84,3.83l2.56-1.97c-1.82-2.2-4-4.07-6.44-5.57l-1.64,2.81c1.01.55,2.02,1.09,3.04,1.64l1.25-2.97c-1.11-.4-2.17-.89-3.18-1.49s-1.96-1.33-3.16-1.51c-.73-.11-1.44.08-1.84.75-.35.61-.27,1.48.25,1.97,1.06.98,2.24,1.68,3.6,2.16,1.81.64,2.73-2.01,1.25-2.97-.97-.64-2.02-1.12-3.12-1.47-1.73-.55-2.93,2.16-1.25,2.97l1.32.64c1.93.93,3.28-1.55,1.64-2.81-1.2-.92-2.53-1.58-3.96-2.06-1.99-.67-2.84,2.47-.87,3.14h0Z"/><path class="cls-3" d="m59.79,71.47c-3.04-2.13-.02-8.86-1.94-12-1.78-2.92-6.12-5.79-9.33-6.75-1.55-.46-3.3.04-4.43,1.17-2.47,2.47-4.77,4.86-7.35,7.24-2.18,2-3.37,4.65-2.08,7.58,1.18,2.68,4.03,4.12,6.86,4.16,1.41.02,2.81-.32,4.07-.96.7-.38,1.36-.83,1.96-1.35,1.85-1.28.92-2.35-2.8-3.21l2.09-2.72c-5.49,2.98-12.24.27-17,4.95-2.14,2.11-1.54,5.62.92,7.15,6.52,4.06,13.38,1.78,20.54,2.35v-9.11c-7.51-.27-15.03-.62-22.55-.8-7.31-.17-14.5.49-21.83.13-1.87-.09-4.02,1.47-4.39,3.34l-.18.9,8.33-1.09c-1.45-2.71,7.95-9.75,9.78-8.81,4.67,2.4,8.94-3.23,5.52-7.15-.65-.75-1.31-1.5-1.96-2.25-1.93-2.21-5.79-1.5-7.15.92-2.39,4.24-13.74,15.57-3.39,18.45,3.75,1.04,8.52-1.43,12.38-1.7,4.49-.32,8.46-.08,12.67-1.87,3.75-1.59,2.38-7.39-1.09-8.33-4.14-1.12-8.28-2.24-12.42-3.36l-1.21,8.95c4.69.31,9.35.67,13.99,1.46,5.73.98,8.2-7.78,2.42-8.79-5.13-.9-10.18-2.08-15.18-3.56-5.77-1.71-7.7,6.64-2.42,8.79,6.26,2.55,11.14,4.16,18,2.67,5.73-1.25,3.3-10.03-2.42-8.79-5.04,1.1-8.63-.83-13.15-2.67l-2.42,8.79c5,1.48,10.04,2.67,15.18,3.56l2.42-8.79c-5.44-.93-10.91-1.42-16.41-1.79-5.19-.34-6.09,7.63-1.21,8.95,4.14,1.12,8.28,2.24,12.42,3.36l-1.09-8.33c-3.02,1.28-7.32.48-10.57.84-1.5.17-3.01.37-4.49.69l-1.61.38c-2,.21-2.12.57-.35,1.1l1.33,3.22c.03-.24,2.62-2.67,3.11-3.35,1.24-1.7,2.33-3.47,3.37-5.31l-7.15.92c.65.75,1.31,1.5,1.96,2.25l5.52-7.15c-6.9-3.54-12.57.97-18.02,5.37-4.95,4.01-7.39,9.96-4.23,15.9,1.77,3.33,7.56,2.76,8.33-1.09l.18-.9-4.39,3.34c7.33.35,14.53-.3,21.83-.13,7.52.17,15.03.53,22.55.8,5.92.21,5.78-8.65,0-9.11-5.17-.42-11.29,1.78-15.94-1.11l.92,7.15c1.1-1.09,4.27-.73,5.67-.91,2.01-.26,4.02-.6,5.97-1.19,3.17-.96,5.95-2.51,6.12-6.21.14-2.99-2.21-5.96-5.07-6.7-1.08-.28-8.34,1.28-6.94,2.73l1.33,3.22c.11.92,6.31-5.77,7.16-6.62l-4.43,1.17c1.87.56,3.77,2.51,4.95,3.94l-1.33-3.22c.41,6.91-1,12.57,5.48,17.1,4.82,3.37,9.37-4.53,4.6-7.87h0Z"/><path class="cls-2" d="m17.86,10.62c-.7.11-1.34.36-1.94.75l.39.51c.53-.5,1.11-.91,1.76-1.24l-.33-.56c-1.55.88-3.08,1.8-4.16,3.25-.21.29.19.57.45.45l.3-.04-.31-.41-.21.63c-.12.35.41.56.59.25.12-.2.26-.36.44-.51l-.54-.32c-.05.23-.08.97-.24,1.12l.39-.05-.07-.04.15.37v-.06c-.2-.03-.41-.06-.62-.09.05.83.09,1.66.14,2.49.02.43.6.41.65,0l.08-.69-.64.09c.19.55.37,1.11.51,1.68.14.52.12,1.06.29,1.58l.63-.17c-.19-.56-.44-1.07-.77-1.56-.2-.29-.71-.12-.59.25l.88,2.73c.11.35.62.29.64-.09l.03-.67-.64.09.35,1.49c.06.26.47.33.59.08l.03-.05c.07-.14.05-.28-.05-.39-.16-.18-.43-.23-.61-.06-.35.32.08.58.09.89.02.42.66.42.65,0,0-.14,0-.28,0-.42,0-.42-.66-.42-.65,0,0,.14,0,.28,0,.42h.65c0-.24-.21-.43-.22-.64l-.16.28h-.21c-.02-.14-.03-.28-.05-.41l-.03.05.59.08c-.12-.5-.23-.99-.35-1.49-.09-.37-.62-.27-.64.09l-.03.67.64-.09-.88-2.73-.59.25c.3.44.53.9.7,1.41.13.39.76.23.63-.17-.17-.51-.16-1.05-.29-1.58-.15-.57-.32-1.13-.51-1.68-.13-.36-.6-.27-.64.09l-.08.69h.65c-.05-.83-.09-1.66-.14-2.49-.02-.35-.55-.46-.64-.09v.06c-.05.14,0,.3.13.37l.07.04c.13.07.29.05.39-.05.32-.3.32-1,.41-1.41.07-.33-.29-.52-.54-.32-.23.19-.39.39-.54.64l.59.25.21-.63c.07-.22-.12-.4-.31-.41-.24-.02-.41.03-.63.13l.45.45c1.01-1.35,2.49-2.2,3.93-3.01.37-.21.04-.75-.33-.56-.7.35-1.32.8-1.89,1.34-.26.25.08.72.39.51.55-.36,1.14-.58,1.79-.69.41-.07.24-.69-.17-.63h0Z"/><path class="cls-2" d="m15.13,16.05l.03,1.22.61-.16c-.2-.47-.37-.95-.51-1.44-.1-.35-.63-.28-.64.09-.04,2.55.28,5.1.95,7.56.11.4.74.23.63-.17-.66-2.41-.97-4.89-.93-7.38l-.64.09c.16.54.35,1.07.58,1.59.13.3.61.14.61-.16l-.03-1.22c0-.42-.66-.42-.65,0h0Z"/><path class="cls-2" d="m15.25,12.97s.09-.09.14-.13l-.07.05c.07-.05.14-.1.22-.13l-.08.03c.08-.03.16-.05.24-.07h-.09s.03,0,.05,0c.09,0,.17-.03.23-.1.06-.06.1-.15.1-.23s-.03-.17-.1-.23c-.06-.06-.15-.1-.23-.1-.19.02-.35.06-.52.14-.06.03-.11.06-.16.1-.07.06-.14.11-.2.18-.06.07-.1.14-.1.23,0,.08.04.18.1.23s.14.1.23.1.17-.03.23-.1h0Z"/><path class="cls-2" d="m18.83,9.68c.26-.72.62-1.38,1.09-1.98l-.54-.32c-.1.67-.26,1.31-.49,1.94l.63.17c.35-1.26.92-2.42,1.71-3.46.22-.29-.28-.68-.51-.39s-.49.59-.73.88c-.22.27.06.72.39.51.89-.56,1.46-1.47,2.33-2.04l-.45-.45c-.22.48-.48.92-.81,1.33l.51.39c.75-1.63,2.26-2.55,3.81-3.33l-.39-.51c-.35.32-.7.65-1.06.97-.27.25.08.72.39.51.47-.31.95-.59,1.46-.84l-.39-.51c-.16.17-.32.34-.47.51-.25.28.06.68.39.51.89-.45,1.76-.92,2.62-1.43l-.33-.56c-.58.43-1.16.86-1.74,1.28-.33.24-.05.76.33.56.86-.46,1.72-.92,2.58-1.38l-.33-.56-.26.2c-.27.2-.13.72.25.59.58-.19,1.17-.37,1.75-.56l-.25-.59-.93.42c-.37.17-.08.64.25.59.89-.12,1.66-.47,2.36-1.03.29-.23-.09-.72-.39-.51l-1.51,1.05c-.21.14-.21.42,0,.56.14.09.22.11.38.11l-.16-.61c-.26.19-.52.35-.81.49-.33.17-.1.69.25.59s.71-.18,1.06-.28c.4-.11.23-.73-.17-.63-.35.09-.71.18-1.06.28l.25.59c.28-.14.55-.31.81-.49s.18-.6-.16-.61l-.05-.02v.56l1.51-1.05-.39-.51c-.61.48-1.3.76-2.07.86l.25.59.93-.42c.34-.15.1-.71-.25-.59-.58.19-1.17.37-1.75.56l.25.59.26-.2c.33-.25.05-.76-.33-.56-.86.46-1.72.92-2.58,1.38l.33.56c.58-.43,1.16-.86,1.74-1.28.33-.24.04-.78-.33-.56-.86.51-1.73.98-2.62,1.43l.39.51c.16-.17.32-.34.47-.51.26-.28-.06-.67-.39-.51-.5.25-.99.53-1.46.84l.39.51c.35-.32.7-.65,1.06-.97.28-.26-.08-.67-.39-.51-1.64.83-3.24,1.84-4.04,3.56-.14.31.26.7.51.39.37-.45.68-.93.92-1.46.12-.27-.15-.64-.45-.45-.87.57-1.45,1.49-2.33,2.04l.39.51c.24-.29.49-.59.73-.88l-.51-.39c-.82,1.09-1.41,2.31-1.77,3.62-.11.41.48.56.63.17.23-.63.4-1.27.49-1.94.04-.27-.32-.61-.54-.32-.55.69-.96,1.44-1.26,2.27-.14.4.49.57.63.17h0Z"/><path class="cls-2" d="m32.95,1.42c-.17-.05-.28-.14-.4-.27l-.32.54c1.51.43,3.03.84,4.61.92v-.65c-.48,0-.96,0-1.45,0-.42,0-.42.64,0,.65,1.03.02,2.05-.06,3.07-.23.37-.06.27-.63-.09-.64l-1.61-.02v.65l2.63-.24-.09-.64-.26.07c-.35.09-.29.66.09.64.53-.03,1.02-.15,1.5-.37.31-.14.14-.61-.16-.61-1.39.01-2.75.28-4.1.57-.32.07-.3.55,0,.63.2.05.37.13.55.23l.08-.59c-.46.08-.91.15-1.37.23-.31.05-.31.58,0,.63.44.07.88.14,1.32.21.41.07.59-.56.17-.63-.44-.07-.88-.14-1.32-.21v.63c.46-.08.91-.15,1.37-.23.29-.05.3-.46.08-.59s-.45-.23-.7-.3v.63c1.3-.27,2.6-.53,3.93-.54l-.16-.61c-.37.17-.77.26-1.17.28l.09.64.26-.07c.35-.09.29-.67-.09-.64l-2.63.24c-.41.04-.43.64,0,.65l1.61.02-.09-.64c-.96.16-1.92.22-2.9.2v.65c.48,0,.96,0,1.45,0,.42,0,.42-.63,0-.65-1.52-.08-2.98-.48-4.44-.89-.33-.09-.52.31-.32.54.19.22.41.35.69.44.4.13.57-.5.17-.63h0Z"/><path class="cls-2" d="m38.74,2.02c-.57.11-.62.85-.21,1.17.3.23.73.24,1.09.29.61.09,1.22.17,1.83.26l.09-.64c-.37-.01-.73-.03-1.1-.04s-.45.57-.09.64c.13,0,.25.06.34.15l.16-.61c-.51.07-1.02.09-1.53.06-.37-.02-.44.55-.09.64l3.09.78.17-.63c-.35-.08-.67-.2-.97-.39l-.25.59,1.05.32c.26.08.53-.24.37-.48l-.32-.49-.37.48c.7.2,1.34.5,1.93.92l.25-.59-1.17-.27c-.41-.09-.57.5-.17.63l2.42.77c.37.12.53-.39.25-.59-.44-.32-.87-.64-1.29-.99l-.39.51c.91.38,1.68.93,2.33,1.66l.39-.51c-.21-.12-.38-.23-.56-.39l-.39.51c.5.24.94.52,1.36.89.26.23.74-.08.51-.39l-.6-.81-.37.48c.28.08.55.17.83.27.3.12.55-.34.32-.54l-.74-.65c-.32-.28-.71.13-.46.46l.27.34.39-.51c-.2-.09-.36-.2-.52-.35l-.39.51c1.16.66,2.03,1.67,2.51,2.92l.54-.32-.54-.5c-.23-.22-.63,0-.54.32l.27.99c.11.4.73.23.63-.17l-.06-.22-.59.25.55.94c.19.32.68.11.59-.25-.12-.52-.28-1.02-.46-1.51l-.59.25c.87,1.24,1.12,2.74,1.35,4.21l.54-.32-.21-.17c-.26-.22-.59,0-.54.32l.18,1.37.59-.25-.42-.55c-.17-.23-.64-.2-.61.16l.13,1.61.61-.16-.51-.95c-.19-.35-.64-.09-.59.25.11.79.27,1.57.48,2.34.1.35.64.28.64-.09v-1.22c-.21.03-.43.06-.64.09.24,1.11.28,2.21.14,3.33l.49-.28-.43-.22c-.26-.14-.53.09-.48.37l.09.5.54-.32c-.18-.17-.31-.32-.45-.53-.23-.35-.79-.02-.56.33.16.25.34.46.55.66.25.23.6,0,.54-.32l-.09-.5-.48.37.43.22c.24.12.46-.04.49-.28.14-1.18.08-2.34-.17-3.5-.08-.36-.64-.28-.64.09v1.22c.21-.03.43-.06.64-.09-.21-.77-.37-1.55-.48-2.34l-.59.25.51.95c.15.28.63.16.61-.16l-.13-1.61-.61.16.42.55c.23.3.64.12.59-.25l-.18-1.37-.54.32.21.17c.26.21.59.01.54-.32-.23-1.53-.51-3.08-1.41-4.37-.2-.28-.73-.12-.59.25.18.5.33,1,.46,1.51l.59-.25-.55-.94c-.19-.32-.69-.11-.59.25l.06.22.63-.17-.27-.99-.54.32.54.5c.22.2.67,0,.54-.32-.53-1.41-1.49-2.57-2.8-3.31-.32-.18-.66.25-.39.51.2.19.4.34.65.46.35.16.62-.22.39-.51l-.27-.34-.46.46.74.65.32-.54c-.27-.11-.54-.2-.83-.27-.25-.07-.54.24-.37.48l.6.81.51-.39c-.46-.4-.94-.73-1.49-.99-.31-.15-.69.25-.39.51.22.19.44.35.69.49.33.18.64-.24.39-.51-.69-.77-1.51-1.36-2.47-1.77-.3-.13-.71.25-.39.51.46.38.94.74,1.43,1.09l.25-.59-2.42-.77-.17.63,1.17.27c.37.08.55-.38.25-.59-.64-.45-1.33-.77-2.09-.98-.26-.07-.53.24-.37.48l.32.49.37-.48-1.05-.32c-.36-.11-.56.4-.25.59.36.22.72.37,1.13.46s.58-.52.17-.63l-3.09-.78-.09.64c.52.02,1.02,0,1.53-.06.32-.04.44-.41.16-.61-.16-.11-.3-.18-.49-.21l-.09.64c.37.01.73.03,1.1.04s.45-.59.09-.64c-.46-.06-.91-.13-1.37-.19-.23-.03-.46-.06-.69-.1-.14-.02-.58-.19-.66-.18.41-.08.24-.7-.17-.63h0Z"/><path class="cls-2" d="m48.29,22.29l-.16-1.55-.64.09c.06.17.1.34.12.52l.64-.09c-.18-.61-.32-1.24-.43-1.86l-.59.25.66.86c.2.27.56.17.61-.16s.06-.63.05-.95l-.64.09c.05.14.09.28.14.42.11.34.63.29.64-.09,0-.11.02-.2.06-.3l-.59.08c.03.06.06.12.09.19.13.27.51.17.59-.08.03-.1.07-.2.1-.3.01-.04.03-.08.04-.12.05-.15.02,0-.09-.01l-.16-.04h0c.28.31.74-.16.46-.47-.19-.21-.52-.16-.68.05-.15.2-.2.49-.28.72l.59-.08c-.03-.06-.06-.12-.09-.19-.13-.27-.51-.17-.59.08-.05.15-.08.31-.08.47l.64-.09c-.05-.14-.09-.28-.14-.42-.11-.34-.65-.3-.64.09,0,.32,0,.64-.05.95l.61-.16-.66-.86c-.22-.29-.66-.13-.59.25.11.63.26,1.25.43,1.86.1.34.68.29.64-.09-.03-.24-.07-.47-.15-.7-.05-.15-.19-.26-.36-.23-.15.02-.3.16-.28.32l.16,1.55c.02.17.14.33.33.33.16,0,.34-.15.33-.33h0Z"/><path class="cls-2" d="m33.13,2.87c1.39.46,2.81.85,4.24,1.17l.09-.64-2.49-.27c-.39-.04-.4.52-.09.64s.58.29.85.49l.16-.61-1.68.02c-.31,0-.47.46-.16.61.36.18.7.37,1.03.6l.08-.59-.67.1c-.29.04-.3.46-.08.59.41.24.78.51,1.13.84l.14-.54-.33.08c-.27.07-.32.46-.08.59s.43.29.6.52l.19-.48c-.12.07-.25.1-.38.09-.27,0-.38.27-.28.49.05.12.11.24.16.37.16.02.16.04,0,.05-.17.11-.62.09-.83.12s-.31.32-.19.48c.17.23.34.46.5.69l.28-.49c-.49,0-.97-.05-1.45-.17-.31-.08-.56.31-.32.54l2.48,2.42.23-.56c-.8-.03-1.57-.15-2.34-.36-.25-.07-.45.16-.4.4l.06.31.31-.41c-.19-.02-.38-.06-.56-.13-.36-.11-.55.4-.25.59.16.11.51.28.61.45.08.15.06.36.08.53.05.33.16.63.32.93l.37-.48c-.57-.13-1.1-.33-1.61-.61-.37-.2-.69.34-.33.56l.3.28.28-.49-.24-.04c-.34-.14-.59.45-.25.59.2.09.34.19.48.36l.32-.54c-.69-.22-1.38-.44-2.07-.68-.3-.1-.57.34-.32.54.31.25.59.52.84.83l.32-.54-1.08-.23c-.29-.06-.59.32-.32.54l1.03.83.32-.54-1.41-.36c-.26-.07-.53.23-.37.48.23.33.48.63.77.9l.23-.56c-.34,0-.66-.02-1-.06-.35-.05-.39.44-.16.61.16.11.24.26.24.44l.4-.4c-.99-.19-1.94-.48-2.85-.9-.37-.17-.7.35-.33.56,1.09.63,2.22,1.19,3.37,1.7l.25-.59c-.72-.1-1.43-.24-2.13-.41l-.09.64c.89.08,1.76.05,2.64-.09.41-.06.24-.69-.17-.63-.82.13-1.64.14-2.46.07-.37-.03-.44.56-.09.64.71.17,1.42.3,2.13.41.33.05.62-.43.25-.59-1.15-.51-2.28-1.07-3.37-1.7l-.33.56c.97.44,1.96.77,3.01.97.26.05.44-.15.4-.4-.06-.37-.24-.62-.54-.83l-.16.61c.33.04.66.06,1,.06.27,0,.44-.36.23-.56-.25-.24-.47-.49-.67-.77l-.37.48,1.41.36c.29.07.58-.33.32-.54l-1.03-.83-.32.54,1.08.23c.33.07.52-.29.32-.54-.25-.31-.53-.58-.84-.83l-.32.54c.69.24,1.37.46,2.07.68.34.1.51-.31.32-.54-.18-.22-.36-.35-.61-.46l-.25.59c.18.07.22.08.41.07.23,0,.43-.28.28-.49s-.31-.37-.54-.51l-.33.56c.56.31,1.14.53,1.76.68.28.07.5-.22.37-.48-.17-.33-.24-.64-.26-1.01,0-.13.03-.24-.03-.37-.15-.31-.66-.58-.94-.76l-.25.59c.24.08.48.12.73.15.23.03.35-.23.31-.41l-.06-.31-.4.4c.83.22,1.66.34,2.51.38.28.01.43-.36.23-.56l-2.48-2.42-.32.54c.54.13,1.07.19,1.62.19.23,0,.43-.28.28-.49-.17-.23-.34-.46-.5-.69l-.19.48c.36-.05,1.1,0,1.32-.37.21-.35-.13-.82-.26-1.12l-.28.49c.2,0,.37-.03.56-.11.17-.07.33-.29.19-.48-.23-.33-.48-.56-.83-.75l-.08.59.33-.08c.23-.06.32-.38.14-.54-.39-.36-.8-.67-1.26-.94l-.08.59.67-.1c.3-.05.28-.45.08-.59-.33-.23-.67-.43-1.03-.6l-.16.61,1.68-.02c.35,0,.41-.42.16-.61-.31-.24-.64-.41-1-.55l-.09.64,2.49.27c.36.04.44-.56.09-.64-1.43-.32-2.85-.71-4.24-1.17-.4-.13-.57.5-.17.63h0Z"/><path class="cls-2" d="m21.79,14.81c-.51,1.28-.76,2.63-1.01,3.99l.64.09c-.12-.96-.25-1.93-.37-2.89-.04-.35-.52-.46-.64-.09-.26.77-.51,1.54-.77,2.31l.64.09c-.08-.66-.06-1.31.07-1.96l-.64-.09c-.06.58-.14,1.16-.25,1.73h.63c-.12-.4-.2-.8-.26-1.21-.05-.33-.55-.29-.63,0-.07.27-.14.55-.21.82l.59-.08c-.14-.28-.27-.56-.41-.84-.12-.25-.54-.19-.59.08-.11.52-.25,1.04-.44,1.54h.63c-.24-.62-.44-1.26-.61-1.9-.09-.37-.62-.27-.64.09-.05.97-.14,1.94-.27,2.9h.63c-.22-.96-.45-1.92-.67-2.88-.09-.37-.63-.27-.64.09-.02.42-.03.84-.05,1.26l.61-.16c-.2-.42-.37-.86-.5-1.31-.11-.36-.61-.27-.64.09-.01.16-.04.3-.1.45h.63c-.16-.8-.32-1.61-.48-2.41-.07-.37-.63-.27-.64.09-.01,1.14-.03,2.29-.13,3.43l.61-.16c-.23-.35-.38-.72-.46-1.13-.08-.38-.62-.26-.64.09-.01.16.04.56-.05.69l.19-.15h-.04c.08.02.17.03.25.04l-.04-.02.16.28v-.04c-.04-.41-.69-.42-.65,0,.02.3.34.51.6.31.29-.21.2-.8.22-1.11l-.64.09c.09.46.27.89.53,1.28.18.28.58.16.61-.16.09-1.14.11-2.28.13-3.43l-.64.09c.16.8.32,1.61.48,2.41.07.35.52.26.63,0,.08-.2.11-.41.12-.63l-.64.09c.15.5.34.99.57,1.46.15.31.6.14.61-.16.02-.42.03-.84.05-1.26l-.64.09c.22.96.45,1.92.67,2.88.07.29.58.33.63,0,.14-1.02.24-2.05.29-3.07l-.64.09c.17.65.37,1.28.61,1.9.12.3.51.31.63,0,.19-.5.33-1.01.44-1.54l-.59.08c.14.28.27.56.41.84.12.25.53.18.59-.08.07-.27.14-.55.21-.82h-.63c.06.41.14.82.26,1.21.08.29.57.33.63,0,.11-.63.2-1.26.27-1.9.04-.36-.57-.44-.64-.09-.14.71-.18,1.41-.1,2.13.04.35.52.45.64.09.26-.77.51-1.54.77-2.31l-.64-.09c.12.96.25,1.93.37,2.89.04.33.57.48.64.09.24-1.35.5-2.7,1.01-3.99.16-.39-.47-.56-.63-.17h0Z"/><path class="cls-2" d="m34.99,7.11l-.25-.44-.28.49c.47,0,.92.04,1.38.14l.09-.64c-.43,0-.82-.11-1.2-.31l-.16.61c.56-.05,1.09.06,1.64.18s1.03.24,1.49.5l.16-.61c-.88-.04-1.76,0-2.63.11-.23.03-.42.26-.28.49.07.12.14.23.21.35l.12-.45c-.13.08-.25.16-.35.27-.11.11-.14.35,0,.46.13.1.22.21.27.36l.15-.37c-.08.05-.16.09-.23.14-.23.13-.19.42,0,.56.12.09.24.17.36.26l.16-.61c-.2.02-.39.03-.58.03-.26,0-.45.37-.23.56.17.14.34.28.51.43l.14-.54c-.15.05-.29.11-.44.16-.27.1-.32.43-.08.59.35.24.65.53.91.86l.19-.48c-.81.16-1.62.21-2.44.18-.27-.01-.45.38-.23.56l.25.21.23-.56c-.57.07-1.14.09-1.71.04-.23-.02-.35.22-.31.41s.07.37.11.56l.48-.37c-.19-.09-.36-.19-.53-.3-.31-.21-.65.25-.39.51s.5.51.75.76l.23-.56c-.38.04-.75.05-1.13.03s-.4.51-.09.64c.14.06.27.13.39.23.32.26.79-.2.46-.46-.21-.17-.42-.29-.67-.4l-.09.64c.38.02.75.01,1.13-.03.27-.03.44-.34.23-.56-.25-.25-.5-.51-.75-.76l-.39.51c.17.12.34.22.53.3.26.12.53-.08.48-.37-.04-.19-.07-.37-.11-.56l-.31.41c.57.04,1.14.03,1.71-.04.24-.03.48-.36.23-.56l-.25-.21-.23.56c.88.04,1.75-.04,2.61-.2.19-.04.32-.32.19-.48-.32-.43-.69-.79-1.14-1.1l-.08.59c.15-.05.29-.11.44-.16.21-.08.35-.37.14-.54-.17-.14-.34-.28-.51-.43l-.23.56c.2,0,.39,0,.58-.03.32-.04.44-.41.16-.61-.12-.09-.24-.17-.36-.26v.56c.08-.05.16-.09.23-.14.12-.07.2-.23.15-.37-.09-.26-.23-.48-.44-.65v.46c.07-.07.13-.12.22-.17.15-.09.21-.3.12-.45-.07-.12-.14-.23-.21-.35l-.28.49c.87-.12,1.75-.15,2.63-.11.32.02.44-.45.16-.61-.52-.29-1.08-.44-1.65-.57s-1.2-.26-1.81-.2c-.3.03-.47.44-.16.61.48.26.99.39,1.53.4.36,0,.45-.56.09-.64-.51-.11-1.03-.16-1.56-.16-.25,0-.4.28-.28.49l.25.44c.21.36.77.04.56-.33h0Z"/><path class="cls-2" d="m30.47,13.12l-1.86-.85c-.15-.07-.32-.05-.42.08-.09.12-.1.33.03.43.54.43,1.02.91,1.46,1.44l.23-.56c-.34.02-.69.01-1.03-.01-.29-.02-.42.37-.23.56.07.07.11.13.15.22l.28-.49c-.52,0-1.04-.04-1.55-.12-.41-.07-.57.47-.17.63.05.02.09.04.14.05.34.13.58-.44.25-.59-.28-.13-.54-.28-.78-.47-.14-.11-.33-.13-.46,0-.11.11-.14.35,0,.46.29.22.59.42.92.57l.25-.59s-.09-.04-.14-.05l-.17.63c.57.09,1.15.14,1.73.14.26,0,.38-.27.28-.49-.06-.13-.15-.25-.25-.35l-.23.56c.34.03.68.03,1.03.01.3-.02.41-.34.23-.56-.43-.53-.92-1.02-1.46-1.44l-.39.51,1.86.85c.16.07.35.05.45-.12.08-.14.04-.37-.12-.45h0Z"/><path class="cls-2" d="m22.97,37.35c.35,1.07,1.04,2,1.97,2.64.14.1.36.03.45-.12.09-.16.03-.34-.12-.45-.78-.54-1.38-1.35-1.67-2.25-.05-.17-.22-.28-.4-.23-.16.04-.28.23-.23.4h0Z"/><path class="cls-2" d="m41.19,39.83c-.1.26-.22.51-.35.76-.14.27.16.63.45.45.91-.59,1.73-1.32,2.43-2.15.11-.13.13-.33,0-.46-.12-.12-.35-.14-.46,0-.66.79-1.43,1.49-2.29,2.05l.45.45c.16-.3.3-.6.42-.92.06-.16-.07-.36-.23-.4-.18-.05-.34.06-.4.23h0Z"/><path class="cls-2" d="m46.03,33.33l-.09.15.56.33c.17-.32.41-.57.73-.73.36-.19.78-.19,1.12-.42.64-.42.95-1.17,1.2-1.87.06-.16-.07-.36-.23-.4-.18-.05-.34.06-.4.23-.21.58-.48,1.31-1.08,1.58-.18.08-.39.11-.58.17s-.36.14-.52.24c-.34.22-.62.52-.8.88s.34.68.56.33l.09-.15c.22-.36-.34-.68-.56-.33h0Z"/><path class="cls-2" d="m42.82,49.4c-.02-.68-.12-1.36-.3-2.02-.04-.16-.23-.28-.4-.23s-.27.22-.23.4c.17.63.25,1.21.27,1.85,0,.17.15.33.33.33s.33-.14.33-.33h0Z"/><path class="cls-3" d="m20.47,30.93c.39,1.79.85,3.57,1.42,5.32.46,1.42,1.03,2.76,2.22,3.72s2.55,1.53,3.9,2.07c1.6.64,3.27,1.12,4.96,1.4,3.01.5,6.13.27,8.62-1.66,2.31-1.8,4.04-4.37,5.13-7.07,1.24-3.05,1.64-6.39,1.18-9.65-.06-.41-.69-.24-.63.17.77,5.48-1.13,11.32-5.12,15.18-1.08,1.05-2.32,1.87-3.79,2.27-1.39.38-2.85.4-4.27.25-3.02-.32-6.18-1.34-8.78-2.92-.69-.42-1.33-.93-1.79-1.6s-.76-1.53-1.02-2.34c-.56-1.75-1.03-3.52-1.42-5.32-.09-.41-.72-.24-.63.17h0Z"/><path class="cls-3" d="m20.23,25.61c-.59-1.47-1.39-2.65-3.14-2.51-.66.05-1.33.22-1.84.65-.6.52-.77,1.37-.94,2.11-.42,1.83-.2,3.44.73,5.06.44.77.95,1.49,1.37,2.26s.7,1.55,1.26,2.2c.94,1.09,3,1.95,4.14.67.28-.31-.18-.77-.46-.46-.59.66-1.56.48-2.25.11-.8-.42-1.27-1.13-1.66-1.92-.71-1.44-1.74-2.74-2.34-4.23-.35-.88-.44-1.8-.3-2.74.11-.77.26-1.99.86-2.55s1.75-.69,2.47-.43c.82.29,1.19,1.21,1.49,1.95.15.38.78.22.63-.17h0Z"/><path class="cls-3" d="m16.01,26.28c.55-.18,1.15-.35,1.74-.39.52-.03.9.62,1.14,1.01.62,1,1.06,2.11,1.57,3.17.18.38.74.05.56-.33-.3-.63-.59-1.25-.89-1.88-.27-.56-.54-1.13-.9-1.63-.34-.47-.75-.99-1.38-1-.66,0-1.38.21-2,.41-.4.13-.23.76.17.63h0Z"/><path class="cls-3" d="m19.01,27.68c-.69.29-1.33.77-1.65,1.47-.34.74-.26,1.5.16,2.19s.94,1.33,1.54,1.85c.5.43,1.4,1.07,1.9.27.22-.36-.34-.68-.56-.33-.2.33-1.17-.67-1.31-.83-.41-.44-.81-.94-1.09-1.46-.62-1.15.34-2.16,1.35-2.59.38-.16.05-.72-.33-.56h0Z"/><path class="cls-3" d="m20.02,26.3c.52,0,1.02-.05,1.53-.15.14-.03.24-.18.24-.31-.08-2.56-.09-5.13-.04-7.69,0-.38.02-.66.26-.98.14-.19.29-.37.43-.56.32-.45.6-.94.83-1.44.44-.95.7-1.94.83-2.97l-.56.23c1.29,1.06,2.66,2.19,4.32,2.6.94.24,1.9.15,2.85.22,1.08.08,2.12.32,3.14.68.3.11.56-.33.32-.54-.45-.39-.85-.82-1.2-1.29-.25-.33-.81,0-.56.33.39.52.81.99,1.3,1.42l.32-.54c-.85-.3-1.71-.51-2.61-.63-.99-.13-2.01-.02-2.99-.19-1.71-.29-3.13-1.45-4.43-2.52-.23-.19-.52-.06-.56.23-.15,1.19-.53,2.34-1.13,3.38-.28.48-.63.89-.94,1.35-.27.39-.27.76-.28,1.22-.05,2.56-.04,5.13.04,7.69l.24-.31c-.45.09-.9.13-1.36.13-.42,0-.42.65,0,.65h0Z"/><path class="cls-3" d="m32.86,14.45c3.29,1.12,6.79,1.37,10.21.77.29-.05.3-.46.08-.59l-1.1-.67-.25.59c.84.32,1.71.65,2.41,1.23.84.69,1.08,1.49,1.19,2.54.08.79.29,1.54.65,2.25.41.81,1.12,1.54,1.02,2.5-.02.18.16.32.33.33.36,0,.73,0,1.09.01.13,0,.29-.1.31-.24l.47-3.41c.06-.41-.57-.59-.63-.17l-.47,3.41.31-.24c-.36,0-.73,0-1.09-.01l.33.33c.11-.99-.5-1.73-.96-2.54-.27-.48-.48-1-.6-1.54s-.12-1.12-.23-1.67c-.39-1.92-2.32-2.77-3.96-3.4-.35-.13-.56.41-.25.59l1.1.67.08-.59c-3.3.58-6.69.31-9.86-.77-.4-.13-.57.49-.17.63h0Z"/><path class="cls-3" d="m48.4,23.29c.95.42,1.3,1.4,1.42,2.36s.15,2.01.06,3c-.15,1.81-.94,3.81-2.75,4.53-.38.15-.22.78.17.63,2.04-.82,2.99-2.9,3.21-4.97.12-1.19.1-2.46-.11-3.63-.18-1.02-.69-2.04-1.68-2.48-.38-.17-.71.39-.33.56h0Z"/><path class="cls-3" d="m48.18,28.12c-.1-1.09.32-2.17,1.16-2.88.13-.11.12-.34,0-.46-.13-.13-.33-.11-.46,0-.95.81-1.46,2.1-1.35,3.34.02.17.14.33.33.33.16,0,.34-.15.33-.33h0Z"/><path class="cls-3" d="m17.28,9.64c-1.1.87-2.29,1.69-3.31,2.64-.9.84-.73,2.07-.64,3.19.21,2.68.85,5.3,1.89,7.78.16.38.79.21.63-.17-.96-2.28-1.59-4.69-1.82-7.15-.06-.59-.11-1.2-.11-1.79,0-.75.25-1.18.82-1.64.99-.81,2.01-1.59,3.01-2.39.33-.26-.14-.72-.46-.46h0Z"/><path class="cls-3" d="m18.65,9.59c1.78-6.19,8.71-7.89,14.24-8.95l-.37-.48c-.14.26-.3.48-.5.7-.16.17-.11.49.14.54,1.34.3,2.7.42,4.07.31,1.46-.11,2.91-.5,4.37-.18l-.08-.59c-.54.32-.95.74-1.25,1.29-.2.37.36.7.56.33.25-.46.57-.79,1.02-1.06.23-.14.2-.53-.08-.59-1.37-.3-2.71-.04-4.07.11-1.47.16-2.93.07-4.37-.25l.14.54c.24-.26.44-.52.6-.83.14-.26-.09-.53-.37-.48-3.27.63-6.63,1.3-9.52,3.05-2.4,1.45-4.39,3.63-5.18,6.36-.12.4.51.58.63.17h0Z"/><path class="cls-3" d="m39.34,2.95c1.83.35,3.63.83,5.38,1.47.89.33,1.87.64,2.68,1.14s1.28,1.59,1.71,2.37c.45.81.9,1.67,1.16,2.56s.22,1.85.19,2.79-.05,1.91-.08,2.87c-.03,1.01.03,2.07-.25,3.04l.48-.19c-.29-.22-.59-.43-.88-.65-.22-.16-.46.07-.49.28-.05.41-.22.76-.5,1.06s.18.77.46.46c.4-.45.61-.93.69-1.52l-.49.28c.29.22.59.43.88.65.17.13.43,0,.48-.19.28-1,.24-2.07.27-3.1s.06-2.07.08-3.11.05-1.99-.25-2.96c-.28-.91-.74-1.78-1.2-2.61-.43-.77-.89-1.69-1.55-2.3s-1.67-.89-2.47-1.21c-1.99-.78-4.04-1.37-6.14-1.76-.41-.08-.58.55-.17.63h0Z"/><path class="cls-3" d="m24.13,40.43c.41,2.15.67,4.32.78,6.51.02.42.67.42.65,0-.11-2.24-.38-4.48-.8-6.68-.08-.41-.71-.24-.63.17h0Z"/><path class="cls-3" d="m41.46,41.24c.19,2.7.59,5.39,1.2,8.02.1.41.72.24.63-.17-.6-2.58-1-5.21-1.18-7.85-.03-.42-.68-.42-.65,0h0Z"/><path class="cls-3" d="m24.51,49.01c-.38.17-.74.36-1.08.6-.15.1-.21.28-.12.45.93,1.61,1.8,3.2,3.27,4.39s3.12,1.78,4.92,2.17,3.76.6,5.61.14c1.57-.39,3.04-1.2,4.21-2.32,1.39-1.33,2.51-3.18,2.31-5.17-.04-.41-.69-.42-.65,0,.22,2.17-1.26,4.16-2.94,5.4s-3.65,1.78-5.71,1.69c-2.17-.09-4.61-.61-6.47-1.78s-2.91-2.98-3.99-4.85l-.12.45c.34-.24.7-.43,1.08-.6s.05-.73-.33-.56h0Z"/><path class="cls-3" d="m23.47,49.45c-1.28.18-2.57.38-3.74.96-.6.3-1.13.62-1.79.75s-1.25.24-1.86.5c-1.19.51-2.22,1.33-3.26,2.08-1.14.83-2.28,1.66-3.4,2.52-2.19,1.67-4.39,3.39-6.39,5.29-.84.8-1.55,1.7-1.9,2.82-.4,1.28-.45,2.7-.58,4.03C.22,71.73.04,75.08,0,78.44c0,.42.65.42.65,0,.03-2.82.17-5.65.4-8.46.12-1.41.23-2.83.44-4.24s.73-2.47,1.7-3.46c1.85-1.87,4-3.51,6.08-5.11,1.06-.81,2.12-1.61,3.2-2.39,1.02-.74,2.03-1.54,3.13-2.17.66-.38,1.34-.63,2.09-.76.58-.11,1.11-.23,1.64-.5.69-.35,1.34-.68,2.1-.88s1.46-.29,2.2-.39c.41-.06.24-.68-.17-.63h0Z"/><path class="cls-3" d="m43.56,49.31c2.31,1.04,4.62,2.07,6.92,3.11,2.14.96,4.49,1.79,6.28,3.36,1.54,1.35,2.69,3.11,3.42,5.01.83,2.13.98,4.36,1.23,6.61.3,2.67.84,5.31,1.74,7.85.14.39.77.22.63-.17-.85-2.41-1.39-4.91-1.69-7.45-.27-2.29-.38-4.56-1.18-6.75-.67-1.85-1.69-3.58-3.08-4.98-1.63-1.66-3.71-2.55-5.8-3.49-2.72-1.22-5.43-2.44-8.15-3.66-.38-.17-.71.39-.33.56h0Z"/><path class="cls-3" d="m37.82,26.99c-.24.81-.67,1.56-1.25,2.17-.12.13-.13.33,0,.46s.34.13.46,0c.66-.7,1.14-1.54,1.42-2.46.05-.17-.06-.35-.23-.4s-.35.06-.4.23h0Z"/><path class="cls-3" d="m29.29,36.52c1.86.64,3.81,1.03,5.78.75s3.72-1.09,5.47-1.88c.38-.17.05-.73-.33-.56-1.64.75-3.32,1.51-5.12,1.79-1.92.3-3.82-.09-5.63-.72-.4-.14-.57.49-.17.63h0Z"/><path class="cls-3" d="m25.56,21.31c.35-.62.72-1.24,1.24-1.73.62-.58,1.38-.8,2.21-.83.75-.03,1.57-.04,2.31.12.87.19,1.37.76,1.87,1.46.24.34.8.01.56-.33-.53-.75-1.09-1.42-2-1.69-.86-.26-1.85-.24-2.73-.21s-1.73.25-2.44.82-1.15,1.31-1.57,2.06c-.21.37.36.69.56.33h0Z"/><path class="cls-3" d="m27.81,24.35c-.07-.74-.08-1.49,0-2.23.02-.16.03-.33.06-.49,0-.01.02-.09.02-.09-.02-.02.12.02-.02.01-.1,0,.02.04.06.06.2.13.3.41.39.62.25.62.47,1.28.48,1.96,0,.11.03.2-.08.25-.14.07-.33.09-.48.1-.13.01-.28-.01-.41,0-.03,0,.03.02.03.03,0-.03,0-.06-.01-.09-.01-.1-.02-.2-.02-.3-.05-.8.03-1.59.22-2.36l-.48.19c.13.08.18.25.22.39.07.25.13.5.18.75.1.5.15,1.01.17,1.52l.61-.16c-.33-.52-.54-1.11-.59-1.73-.01-.16-.11-.3-.28-.32-.15-.02-.33.07-.36.23-.08.48-.02.95.21,1.38.11.2.25.39.43.53.24.19.61.18.73-.14.09-.24.08-.57.05-.82s-.06-.55-.18-.79-.37-.37-.61-.25-.38.4-.46.64c-.13.4.5.57.63.17.02-.05.03-.09.06-.14l.03-.05s.02-.04-.05-.01l-.16-.04s.08.36.09.44c.01.1.02.2.01.3,0,.07.02.24-.02.31l.12-.12-.04.02.16-.04c.06.04.07.03.01-.01-.03-.03-.05-.05-.08-.08-.03-.04-.06-.07-.08-.11-.07-.1-.12-.21-.16-.32-.08-.22-.11-.47-.07-.7l-.64-.09c.07.73.29,1.43.68,2.05.17.26.62.17.61-.16-.02-.61-.09-1.22-.22-1.82-.11-.5-.2-1.11-.67-1.4-.18-.11-.43,0-.48.19-.23.9-.31,1.84-.23,2.77.02.22.03.45.2.61s.43.17.65.17c.4,0,.94-.06,1.23-.36.31-.33.19-.93.12-1.33-.07-.45-.21-.88-.38-1.3-.14-.36-.28-.76-.57-1.03s-.83-.42-1.09,0c-.12.2-.13.46-.16.69-.03.27-.06.54-.07.81-.03.55-.01,1.11.04,1.66.02.17.14.33.33.33.16,0,.34-.15.33-.33h0Z"/><path class="cls-3" d="m25.61,17.6c1.17-.45,2.4-.88,3.64-1.09s2.3.35,3.24,1.06c.26.19.63-.19.45-.45-.37-.53-.85-.96-1.45-1.22-.69-.3-1.45-.35-2.19-.32-1.36.04-2.75.34-3.87,1.15-.34.24-.01.81.33.56.97-.7,2.13-.99,3.31-1.05,1.27-.07,2.53.09,3.32,1.21l.45-.45c-.98-.73-2.15-1.31-3.41-1.17-1.35.15-2.72.65-3.98,1.14-.39.15-.22.78.17.63h0Z"/><path class="cls-3" d="m37.96,17.09c.71-.71,1.71-.91,2.67-.94.5-.02,1.01-.03,1.51.02.52.05.99.3,1.44.55l.25-.59c-2.14-.54-4.56-.64-6.42.75l.48.19-.02-.12c.06-.41-.57-.59-.63-.17-.02.17-.03.3.02.47.06.18.3.32.48.19,1.73-1.28,3.93-1.18,5.92-.68.35.09.58-.41.25-.59-.5-.27-1.01-.53-1.58-.61s-1.22-.06-1.81-.03c-1.1.05-2.22.32-3.02,1.13-.3.3.16.76.46.46h0Z"/><path class="cls-3" d="m37.54,20.28c.71-.84,1.58-1.64,2.69-1.86.54-.11,1.14-.12,1.68-.06.51.05,1.04.21,1.36.64.24.34.81.01.56-.33-.78-1.07-2.27-1.09-3.47-.93-1.36.18-2.43,1.05-3.29,2.07-.27.32.19.78.46.46h0Z"/><path class="cls-3" d="m38.59,24.82c.47.03.95.06,1.42.03.55-.04.63-.52.59-.98s-.14-.93-.22-1.39c-.07-.41-.16-.82-.4-1.17-.22-.32-.55-.6-.94-.68-.18-.04-.38-.05-.55,0-.25.08-.31.31-.36.54-.18.89-.34,1.81-.14,2.7.04.19.09.4.2.55.15.21.38.24.62.26.41.02.9.1,1.26-.14.83-.56.2-1.76-.13-2.42-.17-.35-.42-.83-.84-.9-.58-.1-.56.72-.57,1.08,0,.23,0,.46.01.69s0,.49.14.7c.25.41.79.39,1.03,0,.21-.35.15-.88,0-1.24-.08-.21-.2-.4-.37-.55-.21-.18-.52-.22-.67.06-.07.12-.06.29-.07.42s-.02.28-.02.42c0,.25-.02.51,0,.77.05.64.79.6,1.25.44.39-.13.23-.76-.17-.63-.08.03-.17.05-.25.07-.04,0-.21-.02-.24,0-.05,0-.04,0,.02.06.04.08.06.08.04-.01.02-.08,0-.2,0-.28,0-.16,0-.33,0-.49,0-.09,0-.19.01-.28,0-.04,0-.19.01-.2l-.19.15h.04c-.06,0-.12,0-.17,0-.07-.02.04.06.06.08.03.04.06.09.08.14.05.1.08.22.1.33.01.09.02.2,0,.29,0,.05-.03.09-.04.13-.03.05-.03.05.01,0,.01,0,.03,0,.04,0,.06-.03.04.04.01-.07-.01-.06-.01-.13-.01-.19,0-.16-.01-.32-.02-.48s0-.32,0-.48c0-.11,0-.32.06-.41l-.12.12.04-.02-.16.04h.05c-.05-.01-.11-.03-.16-.04.34.15.5.63.64.94.08.18.15.36.22.54.06.16.12.34.08.51-.08.36-.6.24-.86.22-.03,0-.26-.03-.26-.01.02-.05.04.12.02,0,0-.03,0-.02-.02-.07-.06-.2-.1-.4-.12-.61-.04-.42,0-.84.06-1.25.03-.21.07-.41.11-.62.01-.07.07-.21.06-.28-.01-.07-.06.07-.08.06.02.01.13,0,.15,0,.29.04.53.3.67.54.19.35.22.78.29,1.16.04.25.09.49.12.74.01.1.02.2.03.31,0,.05,0,.1,0,.16,0,.01,0,.03,0,.04-.02.05-.02.06,0,.03,0-.04.13,0-.01-.02-.06,0-.14,0-.21,0-.13,0-.25,0-.38,0-.26,0-.53-.01-.79-.03-.42-.03-.42.62,0,.65h0Z"/><path class="cls-3" d="m24.82,46.87c-.09.72-.25,1.44-.45,2.14-.05.17.06.35.23.4s.35-.06.4-.23c.22-.76.38-1.53.48-2.32.02-.17-.17-.33-.33-.33-.19,0-.3.15-.33.33h0Z"/><path class="cls-3" d="m24.49,40.99c1.12,1.25,2.25,2.49,3.6,3.48,1.27.93,2.7,1.64,4.21,2.11,3.28,1.02,6.78.94,10.1,1.78.24.06.47-.16.4-.4-.51-1.9-.86-3.83-1.04-5.79-.04-.42-.62-.42-.65,0-.14,1.66-.24,3.31.05,4.96.05.31.58.31.63,0,.08-.56.17-1.11.25-1.67h-.63c.12.68.15,1.35.11,2.04l.41-.31c-.91-.34-1.77-.75-2.61-1.23l-.25.59c.9.14,1.74.42,2.54.84.37.19.69-.35.33-.56-.83-.47-1.59-1.02-2.3-1.65l-.32.54c.58.17,1.13.39,1.67.69.32.18.65-.24.39-.51-.47-.49-.97-.95-1.5-1.37-.32-.25-.78.17-.46.46.45.41.89.82,1.34,1.22.24.22.63,0,.54-.32-.13-.49-.25-.98-.38-1.47l-.59.25c.21.34.43.69.64,1.03.19.3.72.11.59-.25-.26-.73-.49-1.47-.69-2.22-.1-.38-.6-.26-.64.09s-.04.68,0,1.03.57.48.64.09c.08-.47.12-.93.1-1.41-.01-.42-.61-.41-.65,0l-.09.95h.65c0-.46.09-.89.23-1.33l-.64-.09-.03,2.75h.65c-.02-.9-.12-1.78-.3-2.65-.08-.37-.63-.27-.64.09-.01.52-.1,1.01-.26,1.5h.63c-.05-.32-.08-.62-.08-.94,0-.42-.65-.42-.65,0v1.82c0,.42.65.42.65,0v-1.82h-.65c0,.38.04.74.1,1.12.06.34.54.28.63,0,.18-.55.27-1.1.28-1.67l-.64.09c.17.82.26,1.64.28,2.48,0,.42.65.42.65,0l.03-2.75c0-.38-.53-.43-.64-.09-.16.49-.24.99-.25,1.51,0,.42.61.41.65,0l.09-.95h-.65c.01.42,0,.82-.08,1.23l.64.09c-.04-.35-.04-.68,0-1.03l-.64.09c.2.75.43,1.49.69,2.22l.59-.25c-.21-.34-.43-.69-.64-1.03-.19-.31-.69-.11-.59.25.13.49.25.98.38,1.47l.54-.32c-.45-.41-.89-.82-1.34-1.22l-.46.46c.53.42,1.03.88,1.5,1.37l.39-.51c-.58-.32-1.18-.57-1.82-.75-.3-.09-.56.32-.32.54.75.67,1.56,1.26,2.44,1.75l.33-.56c-.85-.45-1.75-.75-2.7-.91-.34-.05-.59.4-.25.59.89.51,1.81.94,2.76,1.29.21.08.4-.12.41-.31.04-.75,0-1.48-.14-2.22-.05-.31-.58-.31-.63,0-.08.56-.17,1.11-.25,1.67h.63c-.28-1.59-.16-3.2-.03-4.79h-.65c.18,2.02.54,4.01,1.07,5.96l.4-.4c-3.18-.8-6.5-.77-9.66-1.65-1.51-.42-2.94-1.09-4.23-1.98-1.42-.99-2.58-2.28-3.73-3.57-.28-.31-.74.15-.46.46h0Z"/><path class="cls-3" d="m39,46.47c.19.02.23.19.27.34l.94-1.24c-1.13,0-2.21-.23-3.3-.55s-2.11-.86-3.24-.91c-.53-.02-.98.47-.98.98,0,.58.45.92.98.98s1.04.21,1.53.4v-1.88c-.56.15-1.11-.07-1.65-.23s-1.07-.31-1.6-.49c-1.04-.34-1.81-1.17-2.8-1.64l-.49,1.82c.53.07,1.05.38,1.54.56.6.23,1.22.41,1.84.56,1.26.29,2.55.41,3.84.47,1.16.06,2.41.19,3.56-.04s1.86-1.09,2.41-2.07c.42-.75-.27-1.64-1.1-1.43-.92.23-1.8.29-2.68.69-.8.37-1.54.91-2.46.85-1.25-.08-1.25,1.88,0,1.95,1.04.06,1.96-.37,2.86-.83.42-.21.82-.41,1.28-.51.5-.11,1.02-.15,1.52-.27l-1.1-1.43c-.19.34-.39.77-.72.99s-.81.21-1.21.22c-1.1.01-2.2-.03-3.29-.12s-2.12-.25-3.15-.55-2.04-.85-3.14-.99c-.96-.13-1.34,1.42-.49,1.82.62.3,1.15.67,1.71,1.08s1.13.62,1.76.82c1.29.41,2.72,1.01,4.08.65,1-.26.85-1.56,0-1.88-.67-.25-1.34-.39-2.05-.47v1.95c.52.02,1.01.26,1.49.43.55.2,1.11.38,1.68.53,1.1.3,2.23.49,3.36.49.64,0,1.1-.63.94-1.24-.27-1.05-1.1-1.66-2.15-1.77-.53-.05-.98.49-.98.98,0,.57.45.92.98.98h0Z"/><path class="cls-3" d="m28.11,42.32c-.54-.2-1.11-.37-1.63-.62-.23-.11-.42-.25-.6-.43s-.34-.4-.55-.56l-.23.56c.31.04.62.18.91.29.32.12.64.25.97.37.26.1.52.21.76.36.05.03.1.07.15.11.02.02.15.15.12.08-.02-.05-.01,0-.03.05-.01.03-.02.07-.04.1s-.03.07-.04.1c-.01.05-.02.02,0,.01l.14-.08h-.04c.06,0,.12,0,.17,0-.19-.04-.44-.22-.61-.33-.22-.13-.42-.28-.63-.43-.29-.23-.67.26-.39.51.5.45.99.9,1.49,1.35.31.28.77-.18.46-.46-.5-.45-.99-.9-1.49-1.35l-.39.51c.23.18.47.34.73.49.12.07.24.14.36.2s.26.15.4.15c.32,0,.45-.36.53-.62.09-.32-.05-.56-.29-.75-.44-.36-.98-.54-1.5-.74-.56-.22-1.13-.5-1.73-.57-.27-.03-.45.39-.23.56s.39.4.59.6.44.37.69.49c.57.28,1.19.47,1.78.69.16.06.36-.07.4-.23.05-.18-.06-.34-.23-.4h0Z"/><path class="cls-3" d="m48.93,51.59c2.2.74,4.28,1.68,6.28,2.84.24.14.54-.21.3-.39-1.91-1.48-4.23-2.18-6.51-2.9l-.13.48c1.58.47,3.11,1.02,4.63,1.65.26.11.44-.32.19-.46-2.79-1.52-5.93-1.99-8.91-3.03-.31-.11-.44.38-.13.48,2.93,1.03,6.03,1.48,8.79,2.98l.19-.46c-1.52-.63-3.06-1.18-4.63-1.65-.31-.09-.44.39-.13.48,2.18.69,4.45,1.35,6.29,2.77l.3-.39c-2.05-1.18-4.17-2.14-6.4-2.89-.31-.1-.44.38-.13.48h0Z"/><path class="cls-3" d="m56.26,73.08c.5,1.11,1.02,2.21,1.54,3.3.59,1.23,2.45,1.65,3.56.93,1.26-.82,1.57-2.24.93-3.56-.53-1.1-1.04-2.2-1.54-3.3-.57-1.24-2.46-1.64-3.56-.93-1.28.83-1.54,2.23-.93,3.56h0Z"/><path class="cls-3" d="m57.72,67.51c-.04.6.04,1.19.23,1.76.17.52.99.45.98-.13-.01-.74-.02-1.47-.04-2.21l-.93.25c.9,1.52,1.65,3.11,2.17,4.8.26.83.46,1.67.6,2.53.07.44.13.89.16,1.34.01.19.03.37.03.56,0,.12,0,.25.01.37-.04.21.07.36.33.45,0-.64-1-.64-1,0,0,.41.29.72.7.76.47.05.81-.28.92-.72.14-.53.03-1.16-.02-1.69-.06-.63-.15-1.26-.27-1.88-.49-2.48-1.49-4.85-2.78-7.02-.25-.42-.94-.25-.93.25.01.74.02,1.47.04,2.21l.98-.13c-.17-.5-.23-.97-.2-1.49.04-.64-.96-.64-1,0h0Z"/><path class="cls-3" d="m1.22,80.17l5.49.23c.58.02.65-.81.13-.98-1.28-.42-2.48-1.04-3.55-1.87-.4-.31-1.14.09-.79.61.27.39.41.78.41,1.26l.93-.25c-.52-.76-1.16-1.57-2.17-1.57-.94,0-1.65.83-1.39,1.76.28,1,1.3,1.56,2.21,1.88,1.1.38,2.27.42,3.4.18.46-.1.49-.9,0-.96-.6-.08-1.19-.2-1.76-.36-.07-.02-.86-.25-.86-.28.03-.19.54-.12.68-.1.98.15,1.37,1.21,2.36,1.31.55.06,1.13-.03,1.68-.06.66-.04,1.31-.07,1.97-.11,1.31-.07,2.63-.14,3.94-.21.64-.03.64-1.04,0-1-1.73.09-3.45.19-5.18.28-.41.02-.82.04-1.23.07-.38.02-.86.13-1.22,0-.29-.1-.48-.39-.71-.59s-.5-.37-.79-.49c-.79-.33-2.69-.4-2.64.91.03.61.59.85,1.09,1.03.78.28,1.59.45,2.41.57v-.96c-1.22.26-2.6.12-3.68-.55-.37-.23-1.24-1.25-.28-1.3.6-.03,1.02.64,1.31,1.07.27.4.93.27.93-.25,0-.65-.17-1.23-.54-1.77l-.79.61c1.21.94,2.53,1.65,3.99,2.13l.13-.98-5.49-.23c-.64-.03-.64.97,0,1h0Z"/></svg>